<svg xmlns="http://www.w3.org/2000/svg" width="612" height="187" viewBox="0 0 612 187">
<g>
<path d="M 578.70 187.00 L 245.00 187.00 L 245.04 183.25 C245.07,181.19 245.65,176.80 246.33,173.50 C247.47,167.97 247.80,167.47 250.46,167.17 C253.35,166.83 259.58,169.63 263.50,173.02 C264.60,173.97 267.09,175.49 269.03,176.39 C270.98,177.29 274.77,180.04 277.46,182.51 C281.84,186.53 282.85,187.00 287.17,187.00 C290.44,187.00 292.00,186.58 292.00,185.72 C292.00,184.09 298.68,179.29 330.50,158.09 C333.80,155.90 337.85,153.14 339.50,151.98 C341.15,150.81 343.96,149.00 345.75,147.95 C347.54,146.89 349.00,145.35 349.00,144.51 C349.00,143.68 349.31,143.00 349.69,143.00 C350.94,143.00 355.00,147.33 355.00,148.67 C355.00,149.40 355.56,150.01 356.25,150.02 C357.13,150.03 357.08,150.30 356.08,150.93 C355.26,151.45 353.70,151.46 352.34,150.94 C350.39,150.20 349.73,150.50 348.32,152.78 C345.10,157.98 341.47,161.22 336.25,163.55 C330.71,166.02 329.38,168.63 333.25,169.42 C338.46,170.47 346.48,171.18 362.50,171.99 C388.51,173.32 439.48,176.85 449.00,177.99 C453.67,178.55 465.15,179.67 474.50,180.50 C483.85,181.32 494.42,182.25 498.00,182.56 C501.58,182.88 513.16,183.47 523.75,183.87 C536.45,184.36 543.42,185.02 544.20,185.80 C545.08,186.68 554.20,187.00 578.70,187.00 ZM 612.00 60.93 L 612.00 142.93 L 607.25 143.48 C604.64,143.78 589.45,145.15 573.50,146.52 C557.55,147.89 537.08,149.71 528.00,150.56 C518.92,151.41 505.65,152.54 498.50,153.07 C491.35,153.60 482.35,154.46 478.50,154.98 C471.24,155.97 465.59,156.34 463.00,156.01 C461.01,155.76 465.58,154.69 542.50,137.58 C578.80,129.51 609.29,122.67 610.25,122.38 C611.89,121.90 612.00,118.10 612.00,60.93 ZM 0.00 134.50 L 0.00 53.71 L 10.25 58.87 C15.89,61.71 25.45,66.75 31.50,70.08 C37.55,73.41 53.08,81.55 66.00,88.18 C93.89,102.48 100.00,105.99 100.00,107.71 C100.00,109.49 99.72,109.44 87.93,105.62 C82.20,103.76 73.00,101.06 67.50,99.61 C62.00,98.17 50.75,94.98 42.50,92.53 C26.41,87.75 4.04,82.00 1.53,82.00 C0.18,82.00 0.00,88.03 0.00,134.50 ZM 122.23 176.90 C108.76,178.94 108.69,178.83 112.85,162.29 C114.49,155.80 116.82,145.77 118.05,140.00 C120.96,126.26 121.71,122.36 123.28,122.00 C123.89,121.86 124.63,122.26 125.67,122.82 C125.79,122.89 125.91,122.95 126.04,123.02 C128.91,124.56 139.07,139.31 145.33,151.00 C147.24,154.57 150.05,159.78 151.58,162.57 C154.62,168.12 154.39,170.68 150.79,171.41 C149.53,171.66 144.23,172.76 139.00,173.84 C133.77,174.92 126.23,176.30 122.23,176.90 ZM 110.00 39.49 C106.97,39.54 102.03,39.97 99.00,40.43 C95.97,40.89 93.76,40.98 94.09,40.63 C94.41,40.28 102.95,38.63 113.06,36.96 L 131.44 33.93 L 133.15 36.20 C135.13,38.82 134.76,39.88 132.52,38.02 C131.69,37.32 131.00,37.09 131.00,37.50 C131.00,37.91 130.42,37.77 129.72,37.18 C128.23,35.94 120.55,36.62 117.56,38.26 C116.43,38.88 113.03,39.43 110.00,39.49 ZM 13.47 5.77 C13.79,6.60 13.92,7.39 13.77,7.51 C13.06,8.08 10.25,6.41 7.77,3.92 L 5.01 1.17 L 8.95 2.71 C11.11,3.56 13.15,4.94 13.47,5.77 Z" fill="rgb(0,37,120)"/>
<path d="M 356.73 150.45 C357.12,150.97 357.52,151.53 357.93,152.12 C360.44,155.70 363.58,160.12 364.90,161.93 L 367.30 165.23 L 364.90 164.44 C359.74,162.74 339.62,165.02 341.67,167.07 C343.15,168.55 363.08,169.02 424.71,169.04 L 428.69 169.04 C479.79,169.06 486.81,169.06 492.04,166.01 C493.01,165.44 493.91,164.77 495.02,163.98 C498.58,161.45 503.36,160.67 531.50,158.01 C543.60,156.86 557.78,155.25 563.00,154.44 C593.44,149.67 598.51,148.82 598.90,148.43 C599.50,147.83 595.77,147.93 578.50,148.97 C543.72,151.07 529.99,152.03 521.50,152.96 C498.94,155.44 451.07,158.63 453.50,157.48 C454.05,157.22 459.45,155.94 465.50,154.64 C471.66,153.32 490.70,149.10 513.04,144.14 C464.38,154.99 461.30,155.79 463.00,156.01 C465.59,156.34 471.24,155.97 478.50,154.98 C482.35,154.46 491.35,153.60 498.50,153.07 C505.65,152.54 518.92,151.41 528.00,150.56 C537.08,149.71 557.55,147.89 573.50,146.52 C589.45,145.15 604.64,143.78 607.25,143.48 L 612.00 142.93 L 612.00 187.00 L 578.70 187.00 C554.20,187.00 545.08,186.68 544.20,185.80 C543.42,185.02 536.45,184.36 523.75,183.87 C513.16,183.47 501.58,182.88 498.00,182.56 C494.42,182.25 483.85,181.32 474.50,180.50 C465.15,179.67 453.67,178.55 449.00,177.99 C439.48,176.85 388.51,173.32 362.50,171.99 C346.48,171.18 338.46,170.47 333.25,169.42 C329.38,168.63 330.71,166.02 336.25,163.55 C341.47,161.22 345.10,157.98 348.32,152.78 C349.73,150.50 350.39,150.20 352.34,150.94 C353.70,151.46 355.26,151.45 356.08,150.93 C356.39,150.73 356.60,150.58 356.73,150.45 ZM 24.07 187.00 C27.61,186.73 31.47,185.98 33.79,184.86 C38.13,182.76 56.58,177.47 64.50,176.05 C66.70,175.65 70.97,174.58 74.00,173.66 C77.03,172.74 86.24,170.18 94.48,167.98 C102.72,165.77 110.00,163.41 110.64,162.73 C111.29,162.05 113.68,152.73 115.94,142.00 C120.45,120.61 121.26,118.00 123.40,118.00 C124.19,118.00 133.99,123.10 145.17,129.34 C178.99,148.20 188.24,153.31 194.20,156.38 C203.34,161.08 202.88,163.36 192.48,164.97 C180.88,166.75 162.97,170.14 142.00,174.50 C133.57,176.26 118.66,178.54 103.00,180.48 C88.57,182.26 77.00,184.75 77.00,186.08 C77.00,186.63 110.06,187.00 159.50,187.00 C226.96,187.00 242.00,186.76 242.00,185.69 C242.00,180.44 245.27,161.30 246.35,160.22 C247.47,159.10 249.81,160.22 260.59,167.04 C267.69,171.53 275.75,176.71 278.50,178.54 C281.97,180.86 283.97,182.47 286.17,182.85 C289.97,183.49 294.39,180.46 308.15,171.05 C309.60,170.05 311.16,168.99 312.82,167.86 C336.48,151.72 343.00,146.66 343.00,144.42 C343.00,143.77 344.24,142.98 345.75,142.67 C347.04,142.40 348.23,142.50 349.47,143.08 C349.20,143.28 349.00,143.85 349.00,144.51 C349.00,145.35 347.54,146.89 345.75,147.95 C343.96,149.00 341.15,150.81 339.50,151.98 C337.85,153.14 333.80,155.90 330.50,158.09 C298.68,179.29 292.00,184.09 292.00,185.72 C292.00,186.58 290.44,187.00 287.17,187.00 C282.85,187.00 281.84,186.53 277.46,182.51 C274.77,180.04 270.98,177.29 269.03,176.39 C267.09,175.49 264.60,173.97 263.50,173.02 C259.58,169.63 253.35,166.83 250.46,167.17 C247.80,167.47 247.47,167.97 246.33,173.50 C245.65,176.80 245.07,181.19 245.04,183.25 L 245.00 187.00 L 24.07 187.00 ZM 16.01 185.75 C16.01,186.41 17.11,186.82 18.79,187.00 L 2.46 187.00 C3.82,187.00 5.35,186.21 5.87,185.25 C6.91,183.33 16.02,174.35 56.25,135.57 C71.54,120.83 83.00,109.03 83.00,108.01 C83.00,107.03 82.21,106.00 81.25,105.72 C23.90,88.78 6.62,84.00 2.67,84.00 L 0.67 84.00 C0.88,82.44 1.16,82.00 1.53,82.00 C4.04,82.00 26.41,87.75 42.50,92.53 C50.75,94.98 62.00,98.17 67.50,99.61 C73.00,101.06 82.20,103.76 87.93,105.62 C99.72,109.44 100.00,109.49 100.00,107.71 C100.00,105.99 93.89,102.48 66.00,88.18 C53.08,81.55 37.55,73.41 31.50,70.08 C25.45,66.75 15.89,61.71 10.25,58.87 L 0.00 53.71 L 0.00 0.00 L 5.61 0.00 L 10.48 3.25 C13.16,5.04 16.17,6.99 17.17,7.59 C18.17,8.19 19.78,9.36 20.74,10.18 C21.71,11.01 26.24,13.89 30.81,16.57 C35.38,19.26 40.33,22.69 41.81,24.20 C43.29,25.71 45.11,26.96 45.87,26.97 C47.19,27.00 57.00,33.73 57.00,34.61 C57.00,34.85 54.86,34.82 52.25,34.53 C30.92,32.19 8.00,31.36 8.00,32.93 C8.00,34.15 9.70,35.80 15.07,39.78 C17.51,41.59 22.57,45.34 26.31,48.11 C32.94,53.03 34.94,55.40 33.59,56.75 C33.22,57.11 29.29,57.28 24.86,57.13 C18.52,56.92 16.88,57.14 17.22,58.18 C17.46,58.91 18.52,59.95 19.58,60.50 C20.64,61.06 26.90,64.49 33.50,68.14 C40.10,71.79 47.75,75.90 50.50,77.29 C62.96,83.55 98.74,103.00 111.78,110.59 C115.45,112.73 116.86,116.25 114.97,118.54 C113.52,120.28 100.87,128.78 69.34,149.17 C34.71,171.57 16.03,184.39 16.01,185.75 ZM 110.00 39.49 C113.03,39.43 116.43,38.88 117.56,38.26 C120.55,36.62 128.23,35.94 129.72,37.18 C130.42,37.77 131.00,37.91 131.00,37.50 C131.00,37.09 131.69,37.32 132.52,38.02 C133.82,39.10 134.49,39.19 134.44,38.57 C139.93,47.40 151.00,65.96 151.00,66.55 C151.00,66.84 152.12,68.30 153.50,69.78 C154.88,71.27 156.00,73.04 156.00,73.73 C156.00,74.42 156.96,76.09 158.13,77.43 C159.30,78.78 160.76,80.80 161.38,81.92 C171.17,99.72 181.94,115.13 186.40,117.71 C187.56,118.38 188.05,118.93 187.50,118.93 C186.95,118.94 185.60,118.41 184.50,117.76 C183.40,117.11 181.60,116.44 180.50,116.27 C177.74,115.83 152.45,109.50 141.50,106.49 C136.55,105.14 123.80,101.80 113.17,99.08 C102.54,96.36 92.75,93.41 91.41,92.53 C89.30,91.15 89.12,90.64 90.13,88.76 C91.49,86.21 93.03,84.82 102.75,77.34 C106.74,74.27 110.00,70.99 110.00,70.05 C110.00,67.58 107.04,65.22 92.50,56.12 C76.60,46.17 74.09,44.18 75.97,43.02 C77.36,42.16 82.01,41.33 90.00,40.51 C92.19,40.29 100.44,39.04 109.26,37.60 C100.89,39.03 94.37,40.32 94.09,40.63 C93.76,40.98 95.97,40.89 99.00,40.43 C102.03,39.97 106.97,39.54 110.00,39.49 ZM 122.23 176.90 C126.23,176.30 133.77,174.92 139.00,173.84 C144.23,172.76 149.53,171.66 150.79,171.41 C154.39,170.68 154.62,168.12 151.58,162.57 C150.05,159.78 147.24,154.57 145.33,151.00 C139.07,139.31 128.91,124.56 126.04,123.02 C125.91,122.95 125.79,122.89 125.67,122.82 C124.63,122.26 123.89,121.86 123.28,122.00 C121.71,122.36 120.96,126.26 118.05,140.00 C116.82,145.77 114.49,155.80 112.85,162.29 C108.69,178.83 108.76,178.94 122.23,176.90 ZM 234.00 157.40 C223.74,160.21 215.60,160.76 214.32,158.75 C212.80,156.35 206.01,138.49 206.00,136.86 C206.00,135.96 205.33,133.94 204.51,132.36 C203.59,130.59 203.41,129.37 204.04,129.16 C205.34,128.72 210.10,131.78 211.78,134.13 C212.48,135.11 213.63,135.69 214.34,135.42 C215.05,135.15 216.74,135.96 218.10,137.21 C219.46,138.47 221.87,140.18 223.46,141.00 C229.30,144.04 230.00,144.49 230.00,145.24 C230.00,145.66 230.56,146.00 231.25,146.00 C231.94,146.01 233.85,147.25 235.50,148.77 C237.15,150.28 239.80,152.10 241.38,152.80 C242.96,153.50 244.09,154.24 243.88,154.44 C243.67,154.64 239.23,155.97 234.00,157.40 ZM 13.47 5.77 C13.15,4.94 11.11,3.56 8.95,2.71 L 5.01 1.17 L 7.77 3.92 C10.25,6.41 13.06,8.08 13.77,7.51 C13.92,7.39 13.79,6.60 13.47,5.77 ZM 253.45 154.89 C251.94,156.30 248.00,157.23 248.00,156.17 C248.00,155.08 250.38,154.00 252.78,154.00 C253.77,154.00 254.03,154.35 253.45,154.89 ZM 354.69 147.79 C355.24,148.46 355.81,149.20 356.42,150.02 C356.37,150.02 356.31,150.02 356.25,150.02 C355.56,150.01 355.00,149.40 355.00,148.67 C355.00,148.45 354.89,148.14 354.69,147.79 Z" fill="rgb(3,49,142)"/>
<path d="M 16.01 185.75 C16.03,184.39 34.71,171.57 69.34,149.17 C100.87,128.78 113.52,120.28 114.97,118.54 C116.86,116.25 115.45,112.73 111.78,110.59 C98.74,103.00 62.96,83.55 50.50,77.29 C47.75,75.90 40.10,71.79 33.50,68.14 C26.90,64.49 20.64,61.06 19.58,60.50 C18.52,59.95 17.46,58.91 17.22,58.18 C16.88,57.14 18.52,56.92 24.86,57.13 C29.29,57.28 33.22,57.11 33.59,56.75 C34.94,55.40 32.94,53.03 26.31,48.11 C22.57,45.34 17.51,41.59 15.07,39.78 C9.70,35.80 8.00,34.15 8.00,32.93 C8.00,31.36 30.92,32.19 52.25,34.53 C54.86,34.82 57.00,34.85 57.00,34.61 C57.00,33.76 47.91,27.49 46.05,27.00 C47.00,27.22 49.48,28.57 51.84,30.17 C60.69,36.20 61.62,36.77 67.01,39.51 C72.10,42.09 72.92,42.21 80.47,41.50 C82.31,41.33 83.86,41.18 85.24,41.05 C80.13,41.69 77.06,42.35 75.97,43.02 C74.09,44.18 76.60,46.17 92.50,56.12 C107.04,65.22 110.00,67.58 110.00,70.05 C110.00,70.99 106.74,74.27 102.75,77.34 C93.03,84.82 91.49,86.21 90.13,88.76 C89.12,90.64 89.30,91.15 91.41,92.53 C92.75,93.41 102.54,96.36 113.17,99.08 C123.80,101.80 136.55,105.14 141.50,106.49 C152.45,109.50 177.74,115.83 180.50,116.27 C181.60,116.44 183.40,117.11 184.50,117.76 C185.60,118.41 186.95,118.94 187.50,118.93 C188.05,118.93 187.56,118.38 186.40,117.71 C185.17,117.00 183.46,115.31 181.42,112.86 C183.52,115.08 185.73,116.79 188.47,118.43 C195.04,122.37 201.50,126.51 205.97,129.59 C205.13,129.21 204.43,129.03 204.04,129.16 C203.41,129.37 203.59,130.59 204.51,132.36 C205.33,133.94 206.00,135.96 206.00,136.86 C206.01,138.49 212.80,156.35 214.32,158.75 C215.60,160.76 223.74,160.21 234.00,157.40 C239.23,155.97 243.67,154.64 243.88,154.44 C244.09,154.24 242.96,153.50 241.38,152.80 C241.35,152.79 241.32,152.77 241.29,152.76 C244.67,154.22 248.45,154.48 253.50,153.79 C257.35,153.26 262.42,153.03 264.77,153.29 C267.11,153.55 269.25,153.40 269.52,152.97 C270.12,151.99 278.60,150.64 300.50,148.03 C317.38,146.02 339.74,143.17 345.51,142.29 C346.96,142.07 348.28,142.26 349.66,143.00 C349.60,143.01 349.53,143.03 349.47,143.08 C348.23,142.50 347.04,142.40 345.75,142.67 C344.24,142.98 343.00,143.77 343.00,144.42 C343.00,146.66 336.48,151.72 312.82,167.86 C311.16,168.99 309.60,170.05 308.15,171.05 C294.39,180.46 289.97,183.49 286.17,182.85 C283.97,182.47 281.97,180.86 278.50,178.54 C275.75,176.71 267.69,171.53 260.59,167.04 C249.81,160.22 247.47,159.10 246.35,160.22 C245.27,161.30 242.00,180.44 242.00,185.69 C242.00,186.76 226.96,187.00 159.50,187.00 C110.06,187.00 77.00,186.63 77.00,186.08 C77.00,184.75 88.57,182.26 103.00,180.48 C118.66,178.54 133.57,176.26 142.00,174.50 C162.97,170.14 180.88,166.75 192.48,164.97 C202.88,163.36 203.34,161.08 194.20,156.38 C188.24,153.31 178.99,148.20 145.17,129.34 C133.99,123.10 124.19,118.00 123.40,118.00 C121.26,118.00 120.45,120.61 115.94,142.00 C113.68,152.73 111.29,162.05 110.64,162.73 C110.00,163.41 102.72,165.77 94.48,167.98 C86.24,170.18 77.03,172.74 74.00,173.66 C70.97,174.58 66.70,175.65 64.50,176.05 C56.58,177.47 38.13,182.76 33.79,184.86 C31.47,185.98 27.61,186.73 24.07,187.00 L 18.79 187.00 C17.11,186.82 16.01,186.41 16.01,185.75 ZM 0.00 134.50 C0.00,100.59 0.09,88.21 0.67,84.00 L 2.67 84.00 C6.62,84.00 23.90,88.78 81.25,105.72 C82.21,106.00 83.00,107.03 83.00,108.01 C83.00,109.03 71.54,120.83 56.25,135.57 C16.02,174.35 6.91,183.33 5.87,185.25 C5.35,186.21 3.82,187.00 2.46,187.00 L 0.00 187.00 L 0.00 134.50 ZM 367.50 163.86 C368.92,164.72 372.39,164.87 379.50,164.40 C385.00,164.03 391.98,163.57 395.00,163.37 C412.30,162.25 439.26,159.86 444.00,159.03 C448.43,158.25 479.77,151.45 514.08,143.91 L 513.04 144.14 C490.70,149.10 471.66,153.32 465.50,154.64 C459.45,155.94 454.05,157.22 453.50,157.48 C451.07,158.63 498.94,155.44 521.50,152.96 C529.99,152.03 543.72,151.07 578.50,148.97 C595.77,147.93 599.50,147.83 598.90,148.43 C598.51,148.82 593.44,149.67 563.00,154.44 C557.78,155.25 543.60,156.86 531.50,158.01 C503.36,160.67 498.58,161.45 495.02,163.98 C493.91,164.77 493.01,165.44 492.04,166.01 C486.81,169.06 479.79,169.06 428.69,169.04 L 424.71 169.04 C363.08,169.02 343.15,168.55 341.67,167.07 C339.62,165.02 359.74,162.74 364.90,164.44 L 367.30 165.23 L 364.90 161.93 C364.61,161.54 364.24,161.02 363.81,160.42 C365.37,162.44 366.16,163.04 367.50,163.86 ZM 253.45 154.89 C254.03,154.35 253.77,154.00 252.78,154.00 C250.38,154.00 248.00,155.08 248.00,156.17 C248.00,157.23 251.94,156.30 253.45,154.89 ZM 174.26 103.16 C170.19,97.14 165.69,89.76 161.38,81.92 C163.52,85.81 170.20,96.80 174.26,103.16 ZM 354.69 147.79 C354.64,147.68 354.57,147.58 354.51,147.47 C355.12,148.22 355.78,149.07 356.47,150.03 C356.45,150.02 356.44,150.02 356.42,150.02 C355.81,149.20 355.24,148.46 354.69,147.79 ZM 356.73 150.45 C356.74,150.44 356.75,150.43 356.76,150.42 C357.27,151.13 357.80,151.89 358.36,152.70 C358.70,153.20 359.03,153.67 359.34,154.12 C358.86,153.44 358.38,152.77 357.93,152.12 C357.52,151.53 357.12,150.97 356.73,150.45 ZM 134.43 38.56 C136.37,41.67 139.00,46.00 141.59,50.32 C139.00,46.01 136.37,41.69 134.44,38.57 C134.44,38.57 134.43,38.57 134.43,38.56 ZM 211.58 133.87 C211.67,133.96 211.73,134.03 211.78,134.10 C212.48,135.10 213.63,135.69 214.34,135.42 C213.63,135.69 212.48,135.11 211.78,134.13 C211.72,134.04 211.65,133.96 211.58,133.87 Z" fill="rgb(6,66,171)"/>
<path d="M 367.50 163.86 C365.14,162.43 364.50,161.64 358.36,152.70 C352.46,144.11 349.48,141.69 345.51,142.29 C339.74,143.17 317.38,146.02 300.50,148.03 C278.60,150.64 270.12,151.99 269.52,152.97 C269.25,153.40 267.11,153.55 264.77,153.29 C262.42,153.03 257.35,153.26 253.50,153.79 C245.43,154.90 240.61,153.57 235.50,148.81 C233.85,147.27 231.94,146.01 231.25,146.00 C230.56,146.00 230.00,145.66 230.00,145.24 C230.00,144.49 229.30,144.04 223.46,141.00 C221.87,140.18 219.46,138.47 218.10,137.21 C216.74,135.96 215.05,135.15 214.34,135.42 C213.63,135.69 212.48,135.10 211.78,134.10 C210.67,132.53 199.73,125.17 188.47,118.43 C183.45,115.43 180.24,112.20 176.11,106.00 C172.68,100.85 163.89,86.49 161.38,81.92 C160.76,80.80 159.30,78.78 158.13,77.43 C156.96,76.09 156.00,74.42 156.00,73.73 C156.00,73.04 154.88,71.27 153.50,69.78 C152.12,68.30 151.00,66.84 151.00,66.55 C151.00,65.79 131.90,34.00 131.45,34.00 C131.24,34.00 122.62,35.40 112.29,37.10 C92.23,40.41 92.66,40.36 80.47,41.50 C72.92,42.21 72.10,42.09 67.01,39.51 C61.62,36.77 60.69,36.20 51.84,30.17 C49.27,28.43 46.57,26.99 45.84,26.97 C45.10,26.96 43.29,25.71 41.81,24.20 C40.33,22.69 35.38,19.26 30.81,16.57 C26.24,13.89 21.71,11.01 20.74,10.18 C19.78,9.36 18.17,8.19 17.17,7.59 C16.17,6.99 13.16,5.04 10.48,3.25 L 5.61 -0.00 L 308.80 -0.00 L 612.00 0.00 L 612.00 60.93 C612.00,118.10 611.89,121.90 610.25,122.38 C604.27,124.15 454.10,157.25 444.00,159.03 C439.26,159.86 412.30,162.25 395.00,163.37 C391.98,163.57 385.00,164.03 379.50,164.40 C372.39,164.87 368.92,164.72 367.50,163.86 Z" fill="rgb(253,253,253)"/>
</g>
</svg>