<svg xmlns="http://www.w3.org/2000/svg" width="626" height="417" viewBox="0 0 626 417">
<g>
<path d="M 397.83 314.75 C397.99,329.19 397.93,341.00 397.69,341.00 C397.08,341.00 396.00,332.40 396.00,327.50 C396.00,325.18 395.71,321.17 395.36,318.60 L 394.72 313.92 L 392.61 315.81 C391.45,316.85 389.71,317.98 388.75,318.32 C387.45,318.78 387.00,320.05 387.00,323.27 C387.00,325.65 386.46,328.14 385.80,328.80 C384.31,330.29 363.00,330.49 363.00,329.01 C363.00,328.42 359.33,328.12 353.75,328.26 C346.12,328.46 344.50,328.24 344.50,327.01 C344.50,326.13 346.58,324.78 349.63,323.68 C353.20,322.40 355.12,321.04 355.96,319.20 C356.90,317.14 356.90,316.47 355.96,316.15 C355.29,315.93 353.39,314.53 351.72,313.04 L 348.69 310.33 L 349.92 291.99 C351.98,261.34 354.44,249.06 360.26,240.35 L 363.50 235.50 L 379.50 234.34 C417.17,231.62 426.79,230.52 440.05,227.42 L 446.59 225.88 L 458.30 231.38 C464.73,234.41 470.00,237.25 470.00,237.69 C469.99,239.76 465.71,245.16 462.29,247.43 C456.00,251.59 447.32,253.96 430.68,256.07 C409.76,258.72 407.85,259.53 404.00,267.35 C398.37,278.83 397.51,285.41 397.83,314.75 ZM 182.08 205.75 C181.99,207.21 174.56,207.26 166.00,205.87 C154.49,204.01 143.01,195.89 138.10,186.15 C134.91,179.83 134.66,178.05 136.63,175.68 C137.63,174.48 137.81,174.06 137.02,174.75 C134.78,176.72 134.30,176.29 133.70,171.80 C133.01,166.69 134.88,161.78 138.37,159.49 C143.26,156.29 147.63,159.87 148.20,167.55 C148.66,173.72 153.03,183.01 157.10,186.43 C161.31,189.97 169.02,192.00 178.30,192.00 C185.65,192.00 186.14,192.13 184.87,193.70 C183.79,195.05 184.08,194.99 186.22,193.45 C188.71,191.66 188.94,190.93 188.97,184.75 L 189.00 178.01 L 193.75 182.90 C199.47,188.80 203.12,189.99 215.60,189.99 C223.42,190.00 224.94,190.28 226.50,192.00 C227.50,193.10 227.96,194.00 227.53,194.00 C227.10,194.00 227.20,194.56 227.73,195.25 C228.95,196.80 230.03,201.00 229.21,201.00 C228.88,201.00 227.42,199.86 225.97,198.47 C223.12,195.75 215.35,194.19 210.56,195.40 C206.41,196.44 203.74,199.64 205.01,202.02 C205.92,203.72 205.75,204.00 203.79,204.03 C202.53,204.05 200.63,204.72 199.56,205.53 C197.06,207.42 183.41,207.60 182.66,205.75 C182.26,204.75 182.14,204.75 182.08,205.75 ZM 211.66 258.75 C207.14,262.07 205.72,262.56 199.28,263.00 C195.28,263.27 192.00,263.27 192.00,262.98 C192.00,262.69 193.29,260.89 194.86,258.98 C198.94,254.01 201.70,248.17 202.51,242.81 L 203.20 238.16 L 207.35 239.62 C209.63,240.42 213.14,242.39 215.14,244.00 C218.77,246.91 218.79,246.92 219.38,244.71 C219.71,243.50 219.98,241.46 219.99,240.18 C220.00,238.24 220.37,237.98 222.25,238.56 C225.07,239.43 231.00,242.55 233.05,244.23 C237.55,247.93 239.73,255.00 236.38,255.00 C235.48,255.00 232.06,256.80 228.76,259.00 C225.47,261.20 222.34,263.00 221.81,263.00 C221.28,263.00 220.93,261.76 221.03,260.25 C221.13,258.74 221.16,256.94 221.11,256.25 C220.91,253.90 216.77,255.00 211.66,258.75 ZM 439.93 138.54 C433.91,141.65 426.00,139.21 426.00,134.25 C426.00,132.78 426.77,132.55 430.90,132.84 C437.51,133.30 440.00,131.85 440.00,127.54 C440.00,122.92 436.27,120.00 430.37,120.00 C427.55,120.00 425.99,120.44 425.99,121.25 C425.98,121.94 425.41,121.55 424.74,120.38 C424.06,119.22 422.70,117.14 421.73,115.77 C419.29,112.35 420.41,110.00 424.48,110.00 C426.28,110.00 428.32,109.32 429.00,108.50 C430.60,106.57 432.76,106.61 436.50,108.64 C438.15,109.54 441.70,110.64 444.40,111.10 C453.47,112.63 456.33,118.52 452.06,126.89 C449.82,131.28 445.00,135.11 445.00,132.51 C445.00,131.66 445.55,130.09 446.22,129.01 C447.90,126.33 445.88,124.03 443.54,125.96 C441.80,127.41 441.45,132.65 443.06,133.19 C444.82,133.77 442.94,136.98 439.93,138.54 ZM 231.64 332.95 C230.22,333.49 220.79,334.24 210.69,334.61 C209.86,334.64 209.05,334.67 208.29,334.70 C196.89,335.14 192.99,335.28 191.67,333.51 C190.98,332.59 190.99,331.15 191.00,328.96 C191.00,328.68 191.00,328.38 191.00,328.07 C191.00,323.38 193.73,320.00 197.53,320.00 C199.07,320.00 200.08,320.25 199.78,320.56 C199.17,321.17 205.84,328.00 207.04,328.00 C207.45,328.00 208.09,326.79 208.46,325.31 C209.20,322.34 211.63,320.08 214.12,320.03 C215.02,320.01 217.42,321.53 219.47,323.40 C221.51,325.28 225.10,327.29 227.45,327.88 C229.80,328.47 232.28,329.64 232.97,330.46 C234.01,331.72 233.79,332.13 231.64,332.95 ZM 141.69 331.91 C142.39,334.60 138.92,336.39 136.48,334.61 C135.46,333.86 134.93,332.62 135.26,331.77 C135.58,330.93 135.38,329.78 134.81,329.21 C132.72,327.12 135.24,326.00 142.06,326.00 L 149.00 326.00 L 149.00 300.00 C149.00,278.48 148.76,274.00 147.61,274.00 C145.85,274.00 141.30,270.37 142.08,269.58 C142.85,268.82 158.00,270.10 158.00,270.93 C158.00,271.28 156.59,272.40 154.87,273.42 L 151.73 275.27 L 152.21 300.15 C152.47,313.83 152.92,325.25 153.20,325.53 C153.48,325.82 156.62,326.32 160.16,326.65 L 166.61 327.25 L 166.71 330.64 C166.77,332.93 166.23,334.34 165.04,334.98 C162.70,336.23 159.43,333.93 160.31,331.64 C160.87,330.19 159.82,330.00 151.06,330.00 C141.83,330.00 141.22,330.12 141.69,331.91 ZM 244.52 317.94 C243.66,330.28 242.79,340.54 242.58,340.75 C241.39,341.94 241.46,334.99 243.09,290.00 C244.08,262.77 244.91,238.65 244.94,236.39 C245.00,232.50 245.14,232.30 247.63,232.78 L 250.27 233.28 L 249.56 244.39 C248.90,254.95 248.13,266.21 244.52,317.94 ZM 444.31 328.75 C444.46,330.89 444.01,331.57 442.32,331.81 C440.08,332.13 437.41,328.92 438.77,327.56 C439.16,327.17 439.48,326.10 439.49,325.18 C439.50,323.80 440.72,323.45 446.25,323.20 L 453.00 322.91 L 453.00 311.38 C453.00,300.94 453.17,299.88 454.75,300.19 C456.27,300.48 456.54,301.99 456.78,311.76 L 457.07 323.00 L 464.03 323.00 C469.17,323.00 471.00,323.35 471.00,324.33 C471.00,325.07 470.68,325.99 470.28,326.39 C469.88,326.78 469.55,328.10 469.53,329.30 C469.51,330.97 468.90,331.50 467.00,331.50 C465.02,331.50 464.43,330.93 464.18,328.75 L 463.87 326.00 L 444.12 326.00 ZM 171.38 223.88 C170.71,227.22 169.53,227.53 163.50,226.00 C161.85,225.58 157.46,225.18 153.75,225.12 C146.49,224.99 146.28,224.78 147.88,219.07 C148.52,216.77 149.01,216.63 157.53,216.32 C162.46,216.14 167.74,215.78 169.25,215.52 C171.72,215.10 172.00,215.34 172.00,217.90 C172.00,219.47 171.72,222.16 171.38,223.88 ZM 492.00 306.06 C492.00,308.66 491.00,308.88 486.75,307.21 C483.45,305.90 483.00,305.33 483.00,302.34 C483.00,298.51 485.43,297.00 491.58,297.00 L 495.03 297.00 L 493.51 300.62 C492.68,302.61 492.00,305.06 492.00,306.06 ZM 167.45 251.23 C167.12,252.74 166.38,254.26 165.82,254.61 C165.16,255.02 165.03,254.47 165.46,253.12 C166.50,249.85 163.31,240.43 159.84,236.47 C156.21,232.33 153.82,230.89 149.00,229.93 L 145.50 229.23 L 149.28 229.12 C154.63,228.95 159.08,231.10 162.40,235.45 C165.87,240.00 168.27,247.50 167.45,251.23 ZM 367.00 322.19 C367.00,324.99 367.20,325.17 369.75,324.53 C375.88,323.00 377.82,318.42 373.54,315.62 C371.53,314.30 370.60,314.22 368.50,315.18 C366.93,315.90 366.13,316.90 366.46,317.76 C366.76,318.53 367.00,320.53 367.00,322.19 ZM 166.00 151.69 C166.00,153.19 158.37,153.52 156.16,152.12 C155.11,151.46 155.40,150.69 157.46,148.64 C158.90,147.19 160.50,146.00 161.01,146.00 C162.35,146.00 166.00,150.16 166.00,151.69 ZM 455.00 271.58 C455.00,272.91 454.55,274.00 454.00,274.00 C453.45,274.00 453.00,273.32 453.00,272.48 C453.00,271.64 451.90,270.46 450.56,269.84 C446.05,267.79 446.56,265.97 451.57,266.16 C455.02,266.29 455.96,266.66 455.54,267.75 C455.24,268.53 455.00,270.25 455.00,271.58 ZM 158.43 138.43 C156.22,140.63 154.33,140.40 156.35,138.17 C158.15,136.17 158.60,129.49 157.00,128.50 C156.45,128.16 156.01,127.35 156.03,126.69 C156.05,126.04 156.95,126.56 158.03,127.86 C160.40,130.70 160.60,136.25 158.43,138.43 ZM 429.35 136.51 C431.16,137.84 434.00,137.53 434.00,136.01 C434.00,135.11 428.74,133.94 428.00,134.67 C427.73,134.94 428.33,135.77 429.35,136.51 ZM 166.00 194.11 C166.00,195.39 166.58,195.21 168.02,193.48 C169.08,192.20 169.01,192.06 167.64,192.58 C166.74,192.93 166.00,193.62 166.00,194.11 ZM 201.00 269.00 C201.00,269.55 200.55,270.00 200.00,270.00 C199.45,270.00 199.00,269.55 199.00,269.00 C199.00,268.45 199.45,268.00 200.00,268.00 C200.55,268.00 201.00,268.45 201.00,269.00 Z" fill="rgb(76,53,85)"/>
<path d="M 397.83 314.75 C397.76,308.78 397.75,303.75 397.81,299.43 C397.87,303.33 398.02,306.33 398.17,306.47 C398.35,306.62 407.95,307.27 419.50,307.90 C431.05,308.53 443.09,309.32 446.25,309.65 L 452.00 310.26 L 452.00 305.28 C452.00,301.61 451.49,299.85 450.04,298.53 C446.87,295.67 445.71,290.80 447.03,285.91 C448.18,281.63 450.61,277.11 452.48,275.77 C455.78,273.39 455.87,277.15 452.60,280.68 C448.60,284.99 448.47,288.69 452.14,294.06 C454.91,298.12 455.69,298.66 458.40,298.38 C466.84,297.50 468.64,296.68 476.56,290.15 C477.14,289.67 479.84,287.59 482.56,285.53 C485.28,283.47 488.29,280.27 489.26,278.42 C490.22,276.57 492.02,274.58 493.26,274.00 L 495.50 272.94 L 493.34 274.54 C491.18,276.12 491.18,276.16 493.01,280.32 C494.02,282.62 495.16,286.21 495.54,288.30 C496.21,291.94 496.32,292.02 498.12,290.39 C499.22,289.39 500.06,287.20 500.14,285.10 C500.22,282.76 500.42,282.29 500.71,283.75 C501.62,288.48 503.01,285.69 503.20,278.75 L 503.39 271.50 L 503.74 278.25 C504.21,287.36 505.96,287.12 510.49,277.32 C517.39,262.37 521.02,259.60 532.89,260.17 C546.44,260.82 556.84,268.09 558.98,278.42 C561.14,288.79 556.96,295.00 547.83,295.00 C539.35,295.00 533.42,290.76 523.79,277.81 C521.00,274.06 518.35,271.00 517.89,271.00 C516.64,271.00 514.29,274.94 512.50,280.00 L 510.93 284.46 L 514.89 287.75 C520.43,292.35 522.53,298.79 522.40,310.73 L 522.30 319.95 L 529.29 322.16 C536.28,324.37 542.00,328.08 542.00,330.41 C542.00,331.09 540.99,332.59 539.75,333.73 C528.84,343.81 469.46,351.86 383.00,354.99 C358.60,355.87 286.35,356.09 269.00,355.33 C202.18,352.42 189.93,351.51 156.00,346.88 C121.96,342.24 103.00,336.40 103.00,330.53 C103.00,328.47 107.44,325.36 113.83,322.94 C120.90,320.27 142.72,315.73 145.75,316.30 L 148.00 316.72 L 147.99 295.61 L 147.99 274.50 L 146.83 273.84 C147.12,273.94 147.39,274.00 147.61,274.00 C148.76,274.00 149.00,278.48 149.00,300.00 L 149.00 326.00 L 142.06 326.00 C135.24,326.00 132.72,327.12 134.81,329.21 C135.38,329.78 135.58,330.93 135.26,331.77 C134.93,332.62 135.46,333.86 136.48,334.61 C138.92,336.39 142.39,334.60 141.69,331.91 C141.22,330.12 141.83,330.00 151.06,330.00 C159.82,330.00 160.87,330.19 160.31,331.64 C159.43,333.93 162.70,336.23 165.04,334.98 C166.23,334.34 166.77,332.93 166.71,330.64 L 166.61 327.25 L 160.16 326.65 C156.62,326.32 153.48,325.82 153.20,325.53 C152.92,325.25 152.47,313.83 152.21,300.15 L 151.73 275.27 L 154.41 273.69 C154.30,273.79 154.20,273.89 154.11,273.99 C152.32,275.99 152.40,279.67 152.74,293.93 L 152.77 295.03 L 153.23 314.57 L 161.86 313.32 C166.61,312.63 174.76,311.71 179.96,311.28 L 189.41 310.50 L 190.23 306.54 C190.69,304.37 191.38,293.27 191.78,281.88 C192.36,265.19 192.25,261.32 191.22,261.90 C190.52,262.29 186.47,262.15 182.22,261.59 C171.95,260.24 159.92,260.33 152.26,261.82 C145.00,263.24 141.31,262.17 136.77,257.34 C134.65,255.08 133.78,252.75 132.86,246.83 C131.70,239.38 131.73,239.14 134.36,234.64 C136.94,230.25 144.92,224.23 146.72,225.32 C146.96,225.46 147.21,224.97 147.40,224.08 C148.09,224.96 149.95,225.05 153.75,225.12 C157.46,225.18 161.85,225.58 163.50,226.00 C169.53,227.53 170.71,227.22 171.38,223.88 C171.72,222.16 172.00,219.47 172.00,217.90 C172.00,215.34 171.72,215.10 169.25,215.52 C167.74,215.78 162.46,216.14 157.53,216.32 C149.01,216.63 148.52,216.77 147.88,219.07 C147.84,219.21 147.80,219.34 147.77,219.47 C147.77,216.99 147.15,216.81 143.70,215.91 C138.39,214.52 134.82,210.21 133.93,204.10 C133.56,201.57 132.70,196.14 132.02,192.04 C131.34,187.93 130.96,180.51 131.18,175.54 C131.86,159.92 136.03,154.73 150.81,151.10 C154.14,150.28 156.34,149.49 157.55,148.54 C155.40,150.69 155.11,151.46 156.16,152.12 C158.37,153.52 166.00,153.19 166.00,151.69 C166.00,150.16 162.35,146.00 161.01,146.00 C160.58,146.00 159.38,146.85 158.14,147.98 C159.19,146.72 158.76,145.17 157.13,142.97 C155.12,140.25 154.97,139.75 156.20,138.33 C154.42,140.41 156.28,140.58 158.43,138.43 C160.60,136.25 160.40,130.70 158.03,127.86 C156.95,126.56 156.05,126.04 156.03,126.69 C156.03,126.99 156.11,127.31 156.25,127.61 C155.57,126.84 154.72,126.42 153.75,126.56 C149.11,127.25 151.56,121.84 157.21,118.92 C164.52,115.14 171.24,117.14 175.46,124.34 C178.08,128.80 178.47,131.41 177.36,136.95 C176.49,141.32 170.99,147.00 167.63,147.00 C164.08,147.00 164.17,149.79 167.75,150.53 C180.11,153.06 185.09,157.25 187.01,166.71 C188.47,173.92 189.94,178.17 192.28,181.39 L 189.00 178.01 L 188.97 184.75 C188.94,190.93 188.71,191.66 186.22,193.45 C184.08,194.99 183.79,195.05 184.87,193.70 C186.14,192.13 185.65,192.00 178.30,192.00 C169.02,192.00 161.31,189.97 157.10,186.43 C153.03,183.01 148.66,173.72 148.20,167.55 C147.63,159.87 143.26,156.29 138.37,159.49 C134.88,161.78 133.01,166.69 133.70,171.80 C134.30,176.29 134.78,176.72 137.02,174.75 C137.81,174.06 137.63,174.48 136.63,175.68 C134.66,178.05 134.91,179.83 138.10,186.15 C143.01,195.89 154.49,204.01 166.00,205.87 C174.56,207.26 181.99,207.21 182.08,205.75 C182.14,204.75 182.26,204.75 182.66,205.75 C183.01,206.62 186.19,207.04 189.72,207.05 C186.80,207.20 185.61,207.78 184.08,209.42 C182.83,210.75 180.50,212.38 178.90,213.04 C177.16,213.76 176.00,214.99 176.00,216.12 C176.00,217.15 175.55,218.00 175.00,218.00 C174.45,218.00 174.00,217.30 174.00,216.44 C174.00,215.58 173.55,215.16 173.00,215.50 C172.45,215.84 172.00,218.12 172.00,220.56 C172.00,224.63 172.21,225.00 174.50,225.00 C175.88,225.00 177.00,224.55 177.00,224.00 C177.00,223.45 177.45,223.00 178.00,223.00 C178.55,223.00 179.00,223.59 179.00,224.32 C179.00,225.15 181.50,226.12 185.75,226.95 C192.81,228.32 211.53,234.35 221.73,238.41 C220.30,238.05 220.00,238.43 219.99,240.18 C219.98,241.46 219.71,243.50 219.38,244.71 C218.79,246.92 218.77,246.91 215.14,244.00 C213.14,242.39 209.63,240.42 207.35,239.62 L 203.20 238.16 L 202.51 242.81 C201.70,248.17 198.94,254.01 194.86,258.98 C193.29,260.89 192.00,262.69 192.00,262.98 C192.00,263.27 195.28,263.27 199.28,263.00 C205.72,262.56 207.14,262.07 211.66,258.75 C216.77,255.00 220.91,253.90 221.11,256.25 C221.16,256.94 221.13,258.74 221.03,260.25 C220.93,261.76 221.28,263.00 221.81,263.00 C222.34,263.00 225.47,261.20 228.76,259.00 C232.06,256.80 235.48,255.00 236.38,255.00 C238.27,255.00 238.40,252.75 237.35,250.13 C238.35,252.26 239.00,254.51 238.99,256.22 C238.97,258.46 235.96,270.65 230.01,292.50 C226.30,306.13 226.20,308.14 229.25,307.57 C230.49,307.34 234.01,307.12 237.08,307.07 L 242.49 307.00 C241.46,336.80 241.56,341.77 242.58,340.75 C242.79,340.54 243.66,330.28 244.52,317.94 C248.13,266.21 248.90,254.95 249.56,244.39 L 250.27 233.28 L 247.63 232.78 C245.14,232.30 245.00,232.50 244.94,236.39 C244.92,238.35 244.29,256.72 243.48,279.31 L 243.58 275.75 C244.09,258.56 244.35,241.93 244.16,238.80 L 243.82 233.10 L 239.66 232.59 C214.19,229.51 201.24,227.08 195.75,224.33 C193.48,223.19 193.00,222.29 193.00,219.17 C193.00,214.15 194.58,212.23 200.07,210.58 C204.51,209.24 204.63,209.27 204.57,211.35 L 204.50 213.50 L 246.38 213.76 C273.20,213.93 288.70,213.66 289.47,213.02 C290.13,212.47 291.50,209.32 292.50,206.01 L 294.32 200.00 L 324.52 200.00 L 327.51 208.75 L 330.50 217.50 L 373.25 217.76 C414.40,218.01 416.00,217.95 416.00,216.16 C416.00,214.91 414.92,213.98 412.75,213.35 C409.64,212.46 409.98,212.26 421.00,208.64 C438.05,203.03 447.56,195.93 453.88,184.06 C458.85,174.76 457.22,170.07 448.55,168.68 C443.98,167.94 441.49,169.43 437.65,175.19 C430.35,186.14 418.25,195.65 409.32,197.48 C406.82,197.99 405.93,197.73 405.14,196.26 C404.52,195.11 404.49,193.84 405.05,192.95 C405.56,192.15 405.99,188.57 406.01,185.00 C406.03,181.43 406.50,176.53 407.06,174.12 C407.86,170.63 407.73,168.86 406.41,165.41 C405.50,163.03 405.02,160.40 405.33,159.58 C406.81,155.73 419.22,149.22 428.18,147.60 C431.48,147.00 431.89,147.17 432.18,149.22 C432.44,151.07 433.22,151.56 436.32,151.81 C440.53,152.16 443.00,150.73 443.00,147.93 C443.00,146.17 443.18,146.17 448.34,147.94 C459.66,151.84 464.33,156.02 469.04,166.47 C474.82,179.30 478.58,203.61 477.84,223.47 C477.48,233.24 475.87,237.00 472.03,237.00 C471.41,237.00 470.53,237.70 469.76,238.74 C469.91,238.33 469.99,237.98 470.00,237.69 C470.00,237.25 464.73,234.41 458.30,231.38 L 446.59 225.88 L 440.05 227.42 C426.79,230.52 417.17,231.62 379.50,234.34 L 363.50 235.50 L 360.26 240.35 C359.54,241.43 358.87,242.56 358.24,243.78 C358.63,242.97 359.04,242.17 359.46,241.38 L 362.76 235.27 L 338.13 235.77 C319.03,236.15 257.16,234.66 251.55,233.68 C251.00,233.58 250.24,237.27 249.84,242.00 C248.76,254.95 245.99,299.01 246.00,303.24 L 246.00 306.99 L 261.25 306.24 C269.64,305.83 292.48,305.50 312.00,305.50 C338.57,305.50 347.69,305.20 348.27,304.30 C348.70,303.64 349.50,296.89 350.05,289.30 C351.14,274.27 352.26,264.29 353.94,256.70 C352.20,264.81 351.00,275.86 349.92,291.99 L 348.69 310.33 L 351.72 313.04 C353.39,314.53 355.29,315.93 355.96,316.15 C356.90,316.47 356.90,317.14 355.96,319.20 C355.12,321.04 353.20,322.40 349.63,323.68 C346.58,324.78 344.50,326.13 344.50,327.01 C344.50,328.24 346.12,328.46 353.75,328.26 C359.33,328.12 363.00,328.42 363.00,329.01 C363.00,330.49 384.31,330.29 385.80,328.80 C386.46,328.14 387.00,325.65 387.00,323.27 C387.00,320.05 387.45,318.78 388.75,318.32 C389.71,317.98 391.45,316.85 392.61,315.81 L 394.72 313.92 L 395.36 318.60 C395.71,321.17 396.00,325.18 396.00,327.50 C396.00,332.40 397.08,341.00 397.69,341.00 C397.93,341.00 397.99,329.19 397.83,314.75 ZM 272.31 149.22 C271.19,150.23 267.81,151.17 263.80,151.58 L 257.14 152.26 L 256.49 148.38 C256.14,146.25 255.58,143.82 255.26,143.00 C254.95,142.18 254.78,140.90 254.90,140.18 C255.23,138.20 253.03,136.00 250.74,136.00 C249.62,136.00 246.93,137.99 244.68,140.50 C242.46,142.98 239.93,145.00 239.05,145.00 C238.18,145.00 235.84,143.90 233.85,142.55 C231.87,141.20 229.99,140.34 229.69,140.65 C229.38,140.95 228.83,139.61 228.47,137.67 C227.92,134.76 228.28,133.50 230.45,130.65 C232.29,128.25 232.74,126.96 231.94,126.46 C231.07,125.93 231.09,125.57 231.99,125.01 C232.91,124.44 232.87,123.75 231.84,122.06 C230.64,120.07 229.99,119.92 225.50,120.55 C222.75,120.94 219.71,121.23 218.75,121.19 C217.78,121.15 216.96,121.87 216.92,122.81 C216.75,126.21 213.94,117.76 213.35,112.09 L 212.74 106.26 L 217.62 104.53 C226.88,101.23 227.10,101.04 226.68,96.80 C226.47,94.69 226.12,92.85 225.90,92.72 C225.68,92.59 224.46,91.60 223.19,90.53 C221.36,88.99 220.71,88.86 220.07,89.89 C219.55,90.73 219.01,89.56 218.57,86.59 C217.92,82.30 218.13,81.68 221.56,77.49 C225.25,72.99 227.91,72.00 231.00,74.00 C231.82,74.53 232.05,74.98 231.50,74.99 C230.95,75.00 231.81,75.69 233.40,76.53 C236.75,78.27 239.18,77.75 243.75,74.33 C246.75,72.09 247.00,71.45 247.02,66.20 C247.02,63.06 247.43,59.87 247.92,59.09 C248.44,58.27 251.07,57.49 254.17,57.24 C260.03,56.75 264.09,58.84 264.54,62.58 C264.67,63.64 265.38,65.96 266.11,67.75 C267.94,72.23 271.50,72.14 276.00,67.50 C277.87,65.57 280.14,64.00 281.05,64.00 C283.46,64.00 290.96,69.72 291.92,72.29 C292.54,73.95 292.15,75.20 290.37,77.33 C287.93,80.24 287.29,83.44 288.95,84.47 C289.47,84.79 291.04,83.36 292.45,81.29 C293.85,79.23 295.00,78.11 295.00,78.81 C295.00,79.51 294.04,81.38 292.87,82.97 C289.22,87.90 291.29,89.47 299.00,87.59 C300.38,87.25 301.97,87.32 302.55,87.74 C304.78,89.36 307.86,94.73 308.50,98.13 C309.12,101.45 308.94,101.80 305.83,103.24 C304.00,104.09 301.07,105.09 299.32,105.46 C295.46,106.27 294.05,107.84 293.00,112.50 C292.05,116.71 292.80,120.92 294.12,118.83 C294.80,117.77 294.97,117.80 294.98,119.01 C294.99,119.84 295.89,121.07 296.98,121.75 C298.06,122.43 299.91,124.90 301.09,127.24 C302.26,129.58 302.66,130.97 301.97,130.31 C300.55,128.96 299.55,129.69 296.50,134.35 C293.20,139.40 289.54,139.52 284.30,134.75 C281.34,132.05 277.08,132.18 274.76,135.05 C273.26,136.91 273.02,138.32 273.54,142.44 C274.06,146.65 273.85,147.82 272.31,149.22 ZM 253.99 122.10 C255.37,122.53 258.71,122.64 261.40,122.33 C272.64,121.05 279.00,115.23 279.00,106.23 C279.00,96.32 273.87,90.08 263.49,87.37 C250.10,83.88 241.07,91.16 241.03,105.50 C241.00,114.55 244.56,119.11 253.99,122.10 ZM 400.60 98.09 C392.87,101.60 384.73,100.03 379.70,94.06 C377.49,91.43 377.00,89.86 377.00,85.39 C377.00,78.66 378.78,74.20 382.83,70.80 C389.32,65.33 399.32,66.29 405.34,72.95 C412.99,81.42 410.71,93.50 400.60,98.09 ZM 543.06 291.27 C548.65,292.32 550.95,291.91 554.01,289.34 C556.83,286.97 557.12,286.23 556.70,282.59 C556.15,277.89 553.00,268.67 552.21,269.46 C551.92,269.75 551.05,269.09 550.28,267.99 C549.51,266.90 548.24,266.00 547.44,266.00 C546.65,266.00 546.00,265.65 546.00,265.21 C546.00,264.78 545.04,264.35 543.87,264.27 C542.70,264.18 539.35,263.35 536.43,262.43 C531.25,260.81 531.00,260.82 526.55,262.98 C524.04,264.19 521.34,266.11 520.55,267.24 C519.20,269.16 519.76,269.93 529.87,280.05 C535.99,286.17 541.68,291.01 543.06,291.27 ZM 492.00 306.06 C492.00,305.06 492.68,302.61 493.51,300.62 L 495.03 297.00 L 491.65 297.00 L 494.15 296.70 L 493.46 291.60 C492.71,286.05 491.47,283.00 489.97,283.00 C489.03,283.00 485.77,285.54 481.60,289.50 C473.91,296.83 466.21,301.00 460.38,301.00 C457.01,301.00 457.00,301.01 457.00,305.84 L 457.00 310.68 L 467.25 311.67 C468.14,311.76 468.98,311.84 469.78,311.92 C480.22,312.93 483.17,313.22 483.76,312.18 C484.00,311.76 483.86,311.14 483.67,310.28 C483.63,310.11 483.60,309.94 483.56,309.75 C482.05,302.45 481.86,299.21 482.88,298.57 C483.24,298.35 484.40,298.06 485.89,297.78 C483.87,298.59 483.00,300.05 483.00,302.34 C483.00,305.33 483.45,305.90 486.75,307.21 C491.00,308.88 492.00,308.66 492.00,306.06 ZM 388.66 95.54 C390.77,96.30 392.63,96.93 392.79,96.96 C392.95,96.98 394.92,96.06 397.17,94.92 C407.41,89.69 408.62,83.71 401.28,74.57 C399.20,71.98 392.00,69.22 392.00,71.01 C392.00,71.45 391.08,71.57 389.95,71.28 C385.70,70.16 380.00,78.56 380.00,85.95 C380.00,90.33 382.83,93.46 388.66,95.54 ZM 231.64 332.95 C233.79,332.13 234.01,331.72 232.97,330.46 C232.28,329.64 229.80,328.47 227.45,327.88 C225.10,327.29 221.51,325.28 219.47,323.40 C217.42,321.53 215.02,320.01 214.12,320.03 C211.63,320.08 209.20,322.34 208.46,325.31 C208.09,326.79 207.45,328.00 207.04,328.00 C205.84,328.00 199.17,321.17 199.78,320.56 C200.08,320.25 199.07,320.00 197.53,320.00 C193.73,320.00 191.00,323.38 191.00,328.07 C191.00,328.38 191.00,328.68 191.00,328.96 C190.99,331.15 190.98,332.59 191.67,333.51 C192.99,335.28 196.89,335.14 208.29,334.70 C209.05,334.67 209.86,334.64 210.69,334.61 C220.79,334.24 230.22,333.49 231.64,332.95 ZM 191.99 207.00 C195.30,206.85 198.48,206.35 199.56,205.53 C200.63,204.72 202.53,204.05 203.79,204.03 C205.75,204.00 205.92,203.72 205.01,202.02 C203.74,199.64 206.41,196.44 210.56,195.40 C215.35,194.19 223.12,195.75 225.97,198.47 C227.42,199.86 228.88,201.00 229.21,201.00 C230.03,201.00 228.95,196.80 227.73,195.25 C227.59,195.07 227.48,194.90 227.41,194.75 C227.50,194.88 227.62,195.02 227.77,195.17 C228.67,196.07 229.77,195.90 232.43,194.47 C234.35,193.43 236.18,192.84 236.49,193.16 C236.80,193.47 235.98,197.05 234.66,201.11 L 232.27 208.50 L 219.40 208.78 C208.43,209.02 206.80,208.87 208.37,207.72 C210.05,206.49 209.87,206.28 206.09,205.14 C202.60,204.10 201.63,204.15 199.76,205.45 C198.41,206.40 195.41,207.00 191.99,207.00 ZM 444.31 328.75 L 444.12 326.00 L 463.87 326.00 L 464.18 328.75 C464.43,330.93 465.02,331.50 467.00,331.50 C468.90,331.50 469.51,330.97 469.53,329.30 C469.55,328.10 469.88,326.78 470.28,326.39 C470.68,325.99 471.00,325.07 471.00,324.33 C471.00,323.35 469.17,323.00 464.03,323.00 L 457.07 323.00 L 456.78 311.76 C456.54,301.99 456.27,300.48 454.75,300.19 C453.17,299.88 453.00,300.94 453.00,311.38 L 453.00 322.91 L 446.25 323.20 C440.72,323.45 439.50,323.80 439.49,325.18 C439.48,326.10 439.16,327.17 438.77,327.56 C437.41,328.92 440.08,332.13 442.32,331.81 C444.01,331.57 444.46,330.89 444.31,328.75 ZM 167.45 251.23 C168.27,247.50 165.87,240.00 162.40,235.45 C159.08,231.10 154.63,228.95 149.28,229.12 L 145.50 229.23 L 149.00 229.93 C153.82,230.89 156.21,232.33 159.84,236.47 C163.31,240.43 166.50,249.85 165.46,253.12 C165.03,254.47 165.16,255.02 165.82,254.61 C166.38,254.26 167.12,252.74 167.45,251.23 ZM 367.00 322.19 C367.00,320.53 366.76,318.53 366.46,317.76 C366.13,316.90 366.93,315.90 368.50,315.18 C370.60,314.22 371.53,314.30 373.54,315.62 C377.82,318.42 375.88,323.00 369.75,324.53 C367.20,325.17 367.00,324.99 367.00,322.19 ZM 394.31 79.16 C394.92,85.95 394.02,87.87 391.09,86.06 C390.42,85.64 388.77,85.51 387.44,85.77 C385.67,86.11 385.00,85.79 385.00,84.62 C385.00,83.49 385.90,83.00 387.98,83.00 C390.33,83.00 391.10,82.47 391.59,80.48 C391.94,79.10 392.00,77.12 391.74,76.09 C391.26,74.27 392.48,71.09 393.31,72.03 C393.53,72.29 393.99,75.50 394.31,79.16 ZM 167.71 142.38 C168.78,143.45 172.29,142.67 172.76,141.25 C173.02,140.43 172.10,140.00 170.08,140.00 C167.11,140.00 166.22,140.89 167.71,142.38 ZM 228.00 202.96 C228.00,204.48 228.65,205.00 230.56,205.00 C233.34,205.00 233.06,203.64 229.94,201.97 C228.31,201.10 228.00,201.26 228.00,202.96 ZM 166.00 194.11 C166.00,193.62 166.74,192.93 167.64,192.58 C169.01,192.06 169.08,192.20 168.02,193.48 C166.58,195.21 166.00,195.39 166.00,194.11 ZM 201.00 269.00 C201.00,268.45 200.55,268.00 200.00,268.00 C199.45,268.00 199.00,268.45 199.00,269.00 C199.00,269.55 199.45,270.00 200.00,270.00 C200.55,270.00 201.00,269.55 201.00,269.00 ZM 398.29 288.06 C399.04,279.13 400.70,274.08 404.00,267.35 C401.15,273.17 399.17,280.44 398.29,288.06 ZM 459.95 248.83 C460.77,248.39 461.54,247.92 462.29,247.43 C464.31,246.09 466.63,243.66 468.19,241.47 C466.51,244.38 463.85,246.80 459.95,248.83 ZM 156.78 128.34 C156.85,128.40 156.93,128.45 157.00,128.50 C157.72,128.94 158.02,130.52 157.98,132.30 C157.86,130.82 157.44,129.40 156.78,128.34 ZM 142.03 270.02 C142.22,270.60 143.15,271.53 144.23,272.35 C142.49,271.28 141.75,270.51 142.03,270.02 ZM 157.70 270.72 C156.19,270.13 149.19,269.44 145.08,269.36 C146.29,269.35 147.84,269.43 149.75,269.59 C154.47,270.01 156.89,270.30 157.70,270.72 ZM 200.38 187.97 C203.89,189.50 208.29,189.99 215.60,189.99 C208.15,189.99 203.85,189.57 200.38,187.97 ZM 156.93 272.04 C157.55,271.57 157.95,271.17 158.00,270.96 C158.13,271.24 157.75,271.57 156.99,272.01 ZM 430.68 256.07 C431.53,255.96 432.37,255.85 433.18,255.74 C432.42,255.85 431.64,255.95 430.85,256.05 C410.41,258.64 407.99,259.47 404.36,266.64 C407.99,259.48 410.42,258.64 430.68,256.07 Z" fill="rgb(171,199,209)"/>
<path d="M 405.24 160.61 C405.31,161.82 405.75,163.68 406.41,165.41 C407.73,168.86 407.86,170.63 407.06,174.12 C406.50,176.53 406.03,181.43 406.01,185.00 C405.99,188.57 405.56,192.15 405.05,192.95 C404.49,193.84 404.52,195.11 405.14,196.26 C405.93,197.73 406.82,197.99 409.32,197.48 C418.25,195.65 430.35,186.14 437.65,175.19 C441.49,169.43 443.98,167.94 448.55,168.68 C457.22,170.07 458.85,174.76 453.88,184.06 C447.56,195.93 438.05,203.03 421.00,208.64 C409.98,212.26 409.64,212.46 412.75,213.35 C414.92,213.98 416.00,214.91 416.00,216.16 C416.00,217.95 414.40,218.01 373.25,217.76 L 330.50 217.50 L 327.51 208.75 L 324.52 200.00 L 294.32 200.00 L 292.50 206.01 C291.50,209.32 290.13,212.47 289.47,213.02 C288.70,213.66 273.20,213.93 246.38,213.76 L 204.50 213.50 L 204.57 211.35 C204.63,209.46 204.53,209.27 201.19,210.24 C201.45,210.17 201.71,210.09 201.97,210.01 C204.55,209.24 206.92,208.40 208.27,207.79 C206.87,208.87 208.66,209.02 219.40,208.78 L 232.27 208.50 L 234.66 201.11 C235.98,197.05 236.80,193.47 236.49,193.16 C236.40,193.07 236.18,193.05 235.87,193.10 C236.37,192.90 236.78,192.75 237.06,192.67 C237.96,192.40 239.31,189.71 240.27,186.26 C241.18,182.99 242.61,179.74 243.45,179.04 C244.59,178.10 251.85,177.74 272.08,177.64 C286.98,177.56 299.69,177.81 300.32,178.20 C301.13,178.70 300.52,181.77 298.23,188.75 C296.45,194.17 295.00,198.92 295.00,199.30 C295.00,199.69 301.52,200.00 309.50,200.00 C317.48,200.00 324.00,199.62 324.00,199.16 C324.00,198.69 323.10,195.70 322.00,192.50 C320.90,189.30 320.00,185.63 320.00,184.34 L 320.00 182.00 L 347.85 182.00 C373.55,182.00 375.82,182.14 377.35,183.83 C378.26,184.83 379.00,186.16 379.00,186.77 C379.00,192.84 395.59,181.37 403.02,170.16 C405.36,166.63 405.89,164.93 405.43,162.47 C405.29,161.74 405.22,161.14 405.24,160.61 ZM 455.00 271.58 C455.00,270.25 455.24,268.53 455.54,267.75 C455.96,266.66 455.02,266.29 451.57,266.16 C447.78,266.01 446.57,267.02 448.14,268.41 C445.64,267.24 442.89,266.99 435.19,266.97 C421.28,266.92 411.33,265.61 409.00,263.50 C407.99,262.59 407.50,262.22 406.96,262.54 C410.11,258.98 415.20,258.03 430.85,256.05 C431.64,255.95 432.42,255.85 433.18,255.74 L 433.18 255.74 C446.33,253.97 454.19,251.95 459.95,248.83 C463.85,246.80 466.51,244.38 468.19,241.47 C468.90,240.46 469.46,239.51 469.76,238.74 C470.53,237.70 471.41,237.00 472.03,237.00 C475.87,237.00 477.48,233.24 477.84,223.47 C478.53,204.94 475.31,182.54 470.17,169.20 C471.40,172.30 472.49,175.79 473.47,179.70 L 475.65 188.37 L 481.18 189.48 C491.44,191.53 495.99,196.60 496.00,206.02 C496.00,213.15 492.18,228.14 486.94,241.54 C484.66,247.37 482.96,252.27 483.15,252.43 C483.34,252.60 485.98,253.53 489.00,254.52 C499.59,257.96 504.00,265.32 504.00,279.55 C504.00,280.51 504.03,281.34 504.09,282.05 C503.94,281.05 503.82,279.78 503.74,278.25 L 503.39 271.50 L 503.20 278.75 C503.01,285.69 501.62,288.48 500.71,283.75 C500.56,282.99 500.43,282.75 500.34,283.03 C501.07,279.38 501.52,275.45 501.19,273.75 C500.74,271.44 498.48,271.54 494.44,274.04 L 492.26 275.39 C492.52,275.14 492.88,274.87 493.34,274.54 L 495.50 272.94 L 493.26 274.00 C492.02,274.58 490.22,276.57 489.26,278.42 C488.29,280.27 485.28,283.47 482.56,285.53 C479.84,287.59 477.14,289.67 476.56,290.15 C468.64,296.68 466.84,297.50 458.40,298.38 C455.69,298.66 454.91,298.12 452.14,294.06 C448.47,288.69 448.60,284.99 452.60,280.68 C455.84,277.18 455.78,273.47 452.58,275.69 C452.83,275.28 453.00,274.50 453.00,273.60 C453.00,272.22 452.30,271.08 450.68,269.90 C451.97,270.53 453.00,271.67 453.00,272.48 C453.00,273.32 453.45,274.00 454.00,274.00 C454.55,274.00 455.00,272.91 455.00,271.58 ZM 142.03 270.02 C141.94,270.17 141.96,270.36 142.07,270.57 C140.82,269.46 139.08,269.00 136.23,269.00 C132.39,269.00 131.31,268.50 128.47,265.40 C122.49,258.87 110.47,225.29 109.31,211.88 C108.81,206.20 109.05,204.68 110.98,201.24 C113.77,196.29 119.35,193.03 126.27,192.31 L 131.50 191.77 L 131.50 187.65 C131.64,189.31 131.82,190.82 132.02,192.04 C132.70,196.14 133.56,201.57 133.93,204.10 C134.82,210.21 138.39,214.52 143.70,215.91 C147.15,216.81 147.77,216.99 147.77,219.47 C147.08,221.94 146.80,223.31 147.40,224.08 C147.21,224.97 146.96,225.46 146.72,225.32 C144.92,224.23 136.94,230.25 134.36,234.64 C131.73,239.14 131.70,239.38 132.86,246.83 C133.78,252.75 134.65,255.08 136.77,257.34 C141.31,262.17 145.00,263.24 152.26,261.82 C159.92,260.33 171.95,260.24 182.22,261.59 C186.47,262.15 190.52,262.29 191.22,261.90 C191.92,261.50 192.20,263.17 192.12,269.50 L 175.96 269.86 C162.69,270.15 160.06,270.29 157.26,271.85 C157.84,271.49 158.12,271.20 158.00,270.96 C158.00,270.95 158.00,270.94 158.00,270.93 C158.00,270.86 157.90,270.79 157.70,270.72 C156.89,270.30 154.47,270.01 149.75,269.59 C147.84,269.43 146.29,269.35 145.08,269.36 C143.46,269.32 142.28,269.39 142.08,269.58 C141.98,269.69 141.97,269.84 142.03,270.02 ZM 340.08 102.00 C339.58,102.00 338.46,102.27 337.61,102.60 C336.57,103.00 335.66,102.35 334.89,100.65 C333.38,97.34 331.15,96.56 328.94,98.56 C327.54,99.82 326.73,99.92 325.08,99.04 C322.77,97.81 322.36,95.04 324.20,93.20 C325.61,91.79 324.46,90.36 321.50,89.84 C320.07,89.58 319.41,88.56 319.19,86.24 C318.91,83.35 319.15,83.00 321.44,83.00 C324.27,83.00 325.05,80.34 322.50,79.36 C320.42,78.56 320.63,76.65 323.02,74.48 C324.57,73.07 325.32,72.92 326.22,73.82 C328.34,75.94 330.00,75.13 330.00,72.00 C330.00,69.33 330.33,69.00 333.02,69.00 C335.33,69.00 336.28,69.59 337.00,71.50 C338.11,74.42 338.72,74.56 341.10,72.41 C342.19,71.42 343.64,71.07 344.94,71.48 C346.67,72.03 346.98,72.84 346.76,76.32 C346.52,80.19 346.70,80.52 349.20,80.81 C353.54,81.31 354.18,88.00 349.89,88.00 C347.75,88.00 347.32,90.92 349.18,92.78 C351.02,94.62 347.35,98.26 344.94,96.97 C341.94,95.36 341.00,95.85 341.00,99.00 C341.00,100.65 340.59,102.00 340.08,102.00 ZM 543.06 291.27 C541.68,291.01 535.99,286.17 529.87,280.05 C519.76,269.93 519.20,269.16 520.55,267.24 C521.34,266.11 524.04,264.19 526.55,262.98 C531.00,260.82 531.25,260.81 536.43,262.43 C539.35,263.35 542.70,264.18 543.87,264.27 C545.04,264.35 546.00,264.78 546.00,265.21 C546.00,265.65 546.65,266.00 547.44,266.00 C548.24,266.00 549.51,266.90 550.28,267.99 C551.05,269.09 551.92,269.75 552.21,269.46 C553.00,268.67 556.15,277.89 556.70,282.59 C557.12,286.23 556.83,286.97 554.01,289.34 C550.95,291.91 548.65,292.32 543.06,291.27 ZM 426.02 134.66 C425.33,132.54 425.00,129.74 425.00,126.17 C425.00,123.34 424.87,121.40 424.55,120.07 C424.62,120.18 424.68,120.28 424.74,120.38 C425.41,121.55 425.98,121.94 425.99,121.25 C425.99,120.44 427.55,120.00 430.37,120.00 C436.27,120.00 440.00,122.92 440.00,127.54 C440.00,131.85 437.51,133.30 430.90,132.84 C426.77,132.55 426.00,132.78 426.00,134.25 C426.00,134.39 426.01,134.52 426.02,134.66 ZM 439.93 138.54 C442.94,136.98 444.82,133.77 443.06,133.19 C441.45,132.65 441.80,127.41 443.54,125.96 C445.88,124.03 447.90,126.33 446.22,129.01 C445.55,130.09 445.00,131.66 445.00,132.51 C445.00,133.28 445.42,133.49 446.07,133.28 C444.60,134.35 442.94,135.94 442.01,137.21 C440.16,139.70 440.07,140.36 441.21,142.68 C442.39,145.10 443.16,145.94 447.24,147.57 C443.15,146.18 443.00,146.30 443.00,147.93 C443.00,150.73 440.53,152.16 436.32,151.81 C433.22,151.56 432.44,151.07 432.18,149.22 C431.89,147.17 431.48,147.00 428.18,147.60 C428.11,147.61 428.05,147.63 427.98,147.64 C432.94,146.21 434.00,145.13 434.00,142.50 C434.00,140.81 433.27,140.10 431.04,139.66 C429.75,139.40 428.69,138.83 427.83,137.91 C430.52,140.17 435.69,140.73 439.93,138.54 ZM 331.00 90.00 C333.79,92.79 337.44,92.53 339.93,89.37 C342.40,86.22 342.53,84.20 340.44,81.22 C339.36,79.67 337.87,79.00 335.50,79.00 C329.66,79.00 326.85,85.85 331.00,90.00 ZM 401.97 196.88 C400.28,198.28 399.97,198.94 401.00,198.95 C403.23,198.98 405.30,197.40 404.84,196.03 C404.57,195.21 403.65,195.48 401.97,196.88 ZM 152.99 300.05 L 152.99 304.66 L 152.77 295.03 L 152.74 293.93 C152.62,288.94 152.53,285.25 152.55,282.47 C152.80,286.34 152.99,293.47 152.99,300.05 ZM 146.63 273.77 C146.70,273.79 146.76,273.82 146.83,273.84 L 147.99 274.50 L 147.99 288.87 C147.95,276.82 147.73,274.49 146.63,273.77 ZM 500.25 283.44 C500.20,283.80 500.16,284.36 500.14,285.10 C500.06,287.20 499.22,289.39 498.12,290.39 C497.81,290.67 497.56,290.90 497.34,291.06 C497.50,290.93 497.68,290.76 497.88,290.55 C498.64,289.80 499.56,286.78 500.25,283.44 ZM 447.83 309.82 C450.18,309.88 451.24,309.67 451.70,309.03 C451.86,308.81 451.95,308.53 452.00,308.19 L 452.00 310.26 ZM 421.63 149.40 C417.51,150.86 413.37,152.88 410.27,154.89 C413.50,152.60 417.19,150.82 421.63,149.40 ZM 422.89 117.47 C420.86,115.58 420.08,113.63 420.48,112.19 C420.33,113.15 420.73,114.37 421.73,115.77 C422.08,116.27 422.49,116.86 422.89,117.47 ZM 401.67 272.97 C400.36,276.98 399.26,281.59 398.54,286.14 C399.19,281.50 400.25,277.03 401.67,272.97 ZM 446.58 291.40 C446.34,290.06 446.31,288.75 446.54,287.65 C446.67,287.01 446.88,286.28 447.14,285.51 C447.10,285.64 447.06,285.77 447.03,285.91 C446.52,287.78 446.38,289.65 446.58,291.40 ZM 454.00 119.85 C453.94,115.28 450.64,112.15 444.40,111.10 C450.61,112.15 454.00,115.19 454.00,119.71 C454.00,119.76 454.00,119.80 454.00,119.85 ZM 209.36 206.77 C209.00,206.29 207.69,205.63 206.00,205.12 L 206.09 205.14 C208.62,205.90 209.54,206.25 209.36,206.77 ZM 227.21 304.22 C227.52,301.93 228.44,298.25 230.01,292.50 C228.74,297.17 227.64,301.79 227.21,304.22 ZM 397.89 302.70 L 398.23 306.48 C398.20,306.48 398.18,306.47 398.17,306.47 C398.07,306.37 397.96,304.90 397.89,302.70 ZM 143.09 271.59 C143.41,271.82 143.79,272.08 144.23,272.35 C144.85,272.81 145.52,273.24 146.13,273.54 C145.29,273.27 144.06,272.46 143.09,271.59 ZM 452.18 276.00 C451.59,276.51 450.96,277.30 450.33,278.28 C451.11,276.92 451.80,276.00 452.18,276.00 ZM 190.29 306.24 C190.61,303.88 191.04,298.09 191.37,291.55 C191.02,298.56 190.60,304.32 190.29,306.24 ZM 506.03 284.70 C507.10,283.91 508.58,281.45 510.49,277.32 C508.52,281.59 507.07,284.04 506.03,284.70 ZM 450.53 299.04 C450.47,298.98 450.41,298.93 450.35,298.87 C449.98,298.57 449.63,298.20 449.30,297.79 C449.53,298.05 449.78,298.30 450.04,298.53 C450.22,298.70 450.38,298.86 450.53,299.04 ZM 194.40 213.71 C193.65,214.66 193.25,215.82 193.09,217.33 C193.24,215.80 193.62,214.65 194.40,213.71 ZM 193.00 219.28 C193.01,220.70 193.12,221.64 193.46,222.37 C193.11,221.65 193.00,220.74 193.00,219.41 ZM 495.55 288.34 C495.81,289.77 496.00,290.65 496.23,291.09 C495.99,290.67 495.82,289.79 495.55,288.34 ZM 202.69 204.41 C201.59,204.38 200.81,204.72 199.76,205.45 C200.82,204.71 201.59,204.38 202.69,204.41 ZM 191.56 287.50 C191.57,287.17 191.59,286.83 191.60,286.50 L 191.69 284.14 C191.65,285.27 191.61,286.39 191.56,287.50 Z" fill="rgb(219,156,123)"/>
<path d="M 0.00 208.50 L 0.00 0.00 L 313.00 0.00 L 626.00 0.00 L 626.00 208.50 L 626.00 417.00 L 313.00 417.00 L 0.00 417.00 L 0.00 208.50 ZM 383.00 354.99 C469.46,351.86 528.84,343.81 539.75,333.73 C540.99,332.59 542.00,331.09 542.00,330.41 C542.00,328.08 536.28,324.37 529.29,322.16 L 522.30 319.95 L 522.40 310.73 C522.53,298.79 520.43,292.35 514.89,287.75 L 510.93 284.46 L 512.50 280.00 C514.29,274.94 516.64,271.00 517.89,271.00 C518.35,271.00 521.00,274.06 523.79,277.81 C533.42,290.76 539.35,295.00 547.83,295.00 C556.96,295.00 561.14,288.79 558.98,278.42 C556.84,268.09 546.44,260.82 532.89,260.17 C521.02,259.60 517.39,262.37 510.49,277.32 C506.14,286.73 504.00,287.46 504.00,279.55 C504.00,265.32 499.59,257.96 489.00,254.52 C485.98,253.53 483.34,252.60 483.15,252.43 C482.96,252.27 484.66,247.37 486.94,241.54 C492.18,228.14 496.00,213.15 496.00,206.02 C495.99,196.60 491.44,191.53 481.18,189.48 L 475.65 188.37 L 473.47 179.70 C469.07,162.20 462.54,153.15 451.38,149.12 C443.55,146.28 442.72,145.76 441.21,142.68 C440.07,140.36 440.16,139.70 442.01,137.21 C443.16,135.65 445.43,133.58 447.06,132.62 C450.66,130.50 454.00,124.29 454.00,119.71 C454.00,115.19 450.61,112.15 444.40,111.10 C441.70,110.64 438.15,109.54 436.50,108.64 C432.76,106.61 430.60,106.57 429.00,108.50 C428.32,109.32 426.28,110.00 424.48,110.00 C419.49,110.00 418.94,114.22 423.45,117.95 C424.58,118.89 425.00,121.13 425.00,126.17 C425.00,134.67 426.86,138.82 431.04,139.66 C433.27,140.10 434.00,140.81 434.00,142.50 C434.00,145.55 432.57,146.51 425.25,148.37 C417.98,150.22 412.57,152.81 408.05,156.61 C405.31,158.91 404.92,159.78 405.43,162.47 C405.89,164.93 405.36,166.63 403.02,170.16 C395.59,181.37 379.00,192.84 379.00,186.77 C379.00,186.16 378.26,184.83 377.35,183.83 C375.82,182.14 373.55,182.00 347.85,182.00 L 320.00 182.00 L 320.00 184.34 C320.00,185.63 320.90,189.30 322.00,192.50 C323.10,195.70 324.00,198.69 324.00,199.16 C324.00,199.62 317.48,200.00 309.50,200.00 C301.52,200.00 295.00,199.69 295.00,199.30 C295.00,198.92 296.45,194.17 298.23,188.75 C300.52,181.77 301.13,178.70 300.32,178.20 C299.69,177.81 286.98,177.56 272.08,177.64 C251.85,177.74 244.59,178.10 243.45,179.04 C242.61,179.74 241.18,182.99 240.27,186.26 C239.31,189.71 237.96,192.40 237.06,192.67 C236.20,192.92 234.03,193.85 232.22,194.74 C229.72,195.97 228.67,196.07 227.77,195.17 C227.13,194.53 226.98,194.00 227.45,194.00 C227.93,194.00 227.50,193.10 226.50,192.00 C224.94,190.28 223.42,190.00 215.60,189.99 C204.23,189.99 199.90,188.80 194.99,184.37 C190.93,180.70 188.97,176.36 187.01,166.71 C185.09,157.25 180.11,153.06 167.75,150.53 C164.17,149.79 164.08,147.00 167.63,147.00 C170.99,147.00 176.49,141.32 177.36,136.95 C178.47,131.41 178.08,128.80 175.46,124.34 C171.24,117.14 164.55,115.15 157.18,118.91 C153.18,120.95 151.80,123.00 149.89,129.75 C148.43,134.89 149.70,138.56 153.44,139.98 C154.79,140.49 156.68,142.10 157.63,143.56 C160.14,147.38 158.49,149.21 150.81,151.10 C141.24,153.45 136.42,156.52 133.75,161.93 C131.78,165.94 131.50,168.05 131.50,179.14 L 131.50 191.77 L 126.27 192.31 C119.35,193.03 113.77,196.29 110.98,201.24 C109.05,204.68 108.81,206.20 109.31,211.88 C110.47,225.29 122.49,258.87 128.47,265.40 C131.31,268.50 132.39,269.00 136.23,269.00 C139.40,269.00 141.21,269.57 142.48,270.97 C143.46,272.06 145.10,273.22 146.13,273.54 C147.88,274.10 148.00,275.51 148.00,295.43 L 148.00 316.72 L 145.75 316.30 C142.72,315.73 120.90,320.27 113.83,322.94 C107.44,325.36 103.00,328.47 103.00,330.53 C103.00,336.40 121.96,342.24 156.00,346.88 C189.93,351.51 202.18,352.42 269.00,355.33 C286.35,356.09 358.60,355.87 383.00,354.99 ZM 272.31 149.22 C273.85,147.82 274.06,146.65 273.54,142.44 C273.02,138.32 273.26,136.91 274.76,135.05 C277.08,132.18 281.34,132.05 284.30,134.75 C289.54,139.52 293.20,139.40 296.50,134.35 C299.55,129.69 300.55,128.96 301.97,130.31 C302.66,130.97 302.26,129.58 301.09,127.24 C299.91,124.90 298.06,122.43 296.98,121.75 C295.89,121.07 294.99,119.84 294.98,119.01 C294.97,117.80 294.80,117.77 294.12,118.83 C292.80,120.92 292.05,116.71 293.00,112.50 C294.05,107.84 295.46,106.27 299.32,105.46 C301.07,105.09 304.00,104.09 305.83,103.24 C308.94,101.80 309.12,101.45 308.50,98.13 C307.86,94.73 304.78,89.36 302.55,87.74 C301.97,87.32 300.38,87.25 299.00,87.59 C291.29,89.47 289.22,87.90 292.87,82.97 C294.04,81.38 295.00,79.51 295.00,78.81 C295.00,78.11 293.85,79.23 292.45,81.29 C291.04,83.36 289.47,84.79 288.95,84.47 C287.29,83.44 287.93,80.24 290.37,77.33 C292.15,75.20 292.54,73.95 291.92,72.29 C290.96,69.72 283.46,64.00 281.05,64.00 C280.14,64.00 277.87,65.57 276.00,67.50 C271.50,72.14 267.94,72.23 266.11,67.75 C265.38,65.96 264.67,63.64 264.54,62.58 C264.09,58.84 260.03,56.75 254.17,57.24 C251.07,57.49 248.44,58.27 247.92,59.09 C247.43,59.87 247.02,63.06 247.02,66.20 C247.00,71.45 246.75,72.09 243.75,74.33 C239.18,77.75 236.75,78.27 233.40,76.53 C231.81,75.69 230.95,75.00 231.50,74.99 C232.05,74.98 231.82,74.53 231.00,74.00 C227.91,72.00 225.25,72.99 221.56,77.49 C218.13,81.68 217.92,82.30 218.57,86.59 C219.01,89.56 219.55,90.73 220.07,89.89 C220.71,88.86 221.36,88.99 223.19,90.53 C224.46,91.60 225.68,92.59 225.90,92.72 C226.12,92.85 226.47,94.69 226.68,96.80 C227.10,101.04 226.88,101.23 217.62,104.53 L 212.74 106.26 L 213.35 112.09 C213.94,117.76 216.75,126.21 216.92,122.81 C216.96,121.87 217.78,121.15 218.75,121.19 C219.71,121.23 222.75,120.94 225.50,120.55 C229.99,119.92 230.64,120.07 231.84,122.06 C232.87,123.75 232.91,124.44 231.99,125.01 C231.09,125.57 231.07,125.93 231.94,126.46 C232.74,126.96 232.29,128.25 230.45,130.65 C228.28,133.50 227.92,134.76 228.47,137.67 C228.83,139.61 229.38,140.95 229.69,140.65 C229.99,140.34 231.87,141.20 233.85,142.55 C235.84,143.90 238.18,145.00 239.05,145.00 C239.93,145.00 242.46,142.98 244.68,140.50 C246.93,137.99 249.62,136.00 250.74,136.00 C253.03,136.00 255.23,138.20 254.90,140.18 C254.78,140.90 254.95,142.18 255.26,143.00 C255.58,143.82 256.14,146.25 256.49,148.38 L 257.14 152.26 L 263.80 151.58 C267.81,151.17 271.19,150.23 272.31,149.22 ZM 340.08 102.00 C340.59,102.00 341.00,100.65 341.00,99.00 C341.00,95.85 341.94,95.36 344.94,96.97 C347.35,98.26 351.02,94.62 349.18,92.78 C347.32,90.92 347.75,88.00 349.89,88.00 C354.18,88.00 353.54,81.31 349.20,80.81 C346.70,80.52 346.52,80.19 346.76,76.32 C346.98,72.84 346.67,72.03 344.94,71.48 C343.64,71.07 342.19,71.42 341.10,72.41 C338.72,74.56 338.11,74.42 337.00,71.50 C336.28,69.59 335.33,69.00 333.02,69.00 C330.33,69.00 330.00,69.33 330.00,72.00 C330.00,75.13 328.34,75.94 326.22,73.82 C325.32,72.92 324.57,73.07 323.02,74.48 C320.63,76.65 320.42,78.56 322.50,79.36 C325.05,80.34 324.27,83.00 321.44,83.00 C319.15,83.00 318.91,83.35 319.19,86.24 C319.41,88.56 320.07,89.58 321.50,89.84 C324.46,90.36 325.61,91.79 324.20,93.20 C322.36,95.04 322.77,97.81 325.08,99.04 C326.73,99.92 327.54,99.82 328.94,98.56 C331.15,96.56 333.38,97.34 334.89,100.65 C335.66,102.35 336.57,103.00 337.61,102.60 C338.46,102.27 339.58,102.00 340.08,102.00 ZM 400.60 98.09 C410.71,93.50 412.99,81.42 405.34,72.95 C399.32,66.29 389.32,65.33 382.83,70.80 C378.78,74.20 377.00,78.66 377.00,85.39 C377.00,89.86 377.49,91.43 379.70,94.06 C384.73,100.03 392.87,101.60 400.60,98.09 ZM 152.99 300.05 C152.99,292.05 152.71,283.23 152.38,280.46 C151.78,275.46 151.80,275.40 155.70,272.82 C159.46,270.33 160.34,270.20 175.96,269.86 L 192.29 269.50 L 191.60 286.50 C191.22,295.85 190.57,305.08 190.16,307.00 L 189.42 310.50 L 179.96 311.28 C174.76,311.71 166.56,312.63 161.75,313.33 L 153.00 314.60 L 152.99 300.05 ZM 467.25 311.67 L 457.00 310.68 L 457.00 305.84 C457.00,301.01 457.01,301.00 460.38,301.00 C466.21,301.00 473.91,296.83 481.60,289.50 C485.77,285.54 489.03,283.00 489.97,283.00 C491.47,283.00 492.71,286.05 493.46,291.60 L 494.15 296.70 L 489.05 297.31 C486.25,297.64 483.47,298.21 482.88,298.57 C481.86,299.21 482.05,302.45 483.56,309.75 C484.33,313.52 485.23,313.41 467.25,311.67 ZM 435.60 308.96 C430.16,308.55 419.53,307.89 411.98,307.50 L 398.26 306.79 L 397.71 300.71 C396.75,290.10 400.69,271.70 405.51,264.35 C407.06,261.98 407.26,261.93 409.00,263.50 C411.33,265.61 421.28,266.92 435.19,266.97 C444.22,266.99 446.44,267.33 449.44,269.10 C451.95,270.58 453.00,271.91 453.00,273.60 C453.00,274.92 452.63,276.00 452.18,276.00 C451.08,276.00 447.37,283.68 446.54,287.65 C445.82,291.14 447.69,296.67 450.35,298.87 C451.47,299.81 452.00,301.80 452.00,305.12 C452.00,310.74 453.73,310.33 435.60,308.96 ZM 227.01 305.74 C227.01,304.51 228.36,298.55 230.01,292.50 C235.96,270.65 238.97,258.46 238.99,256.22 C239.01,252.92 236.59,247.64 233.86,245.01 C232.56,243.76 228.80,241.51 225.50,240.00 C217.08,236.16 193.81,228.52 185.75,226.95 C181.50,226.12 179.00,225.15 179.00,224.32 C179.00,223.59 178.55,223.00 178.00,223.00 C177.45,223.00 177.00,223.45 177.00,224.00 C177.00,224.55 175.88,225.00 174.50,225.00 C172.21,225.00 172.00,224.63 172.00,220.56 C172.00,218.12 172.45,215.84 173.00,215.50 C173.55,215.16 174.00,215.58 174.00,216.44 C174.00,217.30 174.45,218.00 175.00,218.00 C175.55,218.00 176.00,217.15 176.00,216.12 C176.00,214.99 177.16,213.76 178.90,213.04 C180.50,212.38 182.83,210.75 184.08,209.42 C185.96,207.42 187.32,207.00 191.95,207.00 C195.39,207.00 198.41,206.40 199.76,205.45 C201.61,204.16 202.62,204.10 205.95,205.10 C208.14,205.76 209.71,206.67 209.43,207.12 C209.15,207.57 205.79,208.87 201.97,210.01 C194.41,212.26 193.00,213.74 193.00,219.41 C193.00,222.27 193.53,223.21 195.75,224.33 C201.24,227.08 214.19,229.51 239.66,232.59 L 243.82 233.10 L 244.16 238.80 C244.35,241.93 244.09,258.56 243.58,275.75 L 242.66 307.00 L 237.08 307.07 C234.01,307.12 230.49,307.34 229.25,307.57 C227.46,307.90 227.00,307.53 227.01,305.74 ZM 246.00 303.24 C245.99,299.01 248.76,254.95 249.84,242.00 C250.24,237.27 251.00,233.58 251.55,233.68 C257.16,234.66 319.03,236.15 338.13,235.77 L 362.76 235.27 L 359.46 241.38 C354.13,251.29 352.04,261.93 350.05,289.30 C349.50,296.89 348.70,303.64 348.27,304.30 C347.69,305.20 338.57,305.50 312.00,305.50 C292.48,305.50 269.64,305.83 261.25,306.24 L 246.00 306.99 L 246.00 303.24 ZM 495.55 288.34 C495.16,286.23 494.01,282.60 492.99,280.29 L 491.14 276.07 L 494.44 274.04 C498.48,271.54 500.74,271.44 501.19,273.75 C501.84,277.07 499.50,288.94 497.88,290.55 C496.38,292.05 496.20,291.87 495.55,288.34 ZM 228.00 202.96 C228.00,201.26 228.31,201.10 229.94,201.97 C233.06,203.64 233.34,205.00 230.56,205.00 C228.65,205.00 228.00,204.48 228.00,202.96 ZM 401.97 196.88 C403.65,195.48 404.57,195.21 404.84,196.03 C405.30,197.40 403.23,198.98 401.00,198.95 C399.97,198.94 400.28,198.28 401.97,196.88 ZM 167.71 142.38 C166.22,140.89 167.11,140.00 170.08,140.00 C172.10,140.00 173.02,140.43 172.76,141.25 C172.29,142.67 168.78,143.45 167.71,142.38 ZM 429.35 136.51 C428.33,135.77 427.73,134.94 428.00,134.67 C428.74,133.94 434.00,135.11 434.00,136.01 C434.00,137.53 431.16,137.84 429.35,136.51 ZM 253.99 122.10 C244.56,119.11 241.00,114.55 241.03,105.50 C241.07,91.16 250.10,83.88 263.49,87.37 C273.87,90.08 279.00,96.32 279.00,106.23 C279.00,115.23 272.64,121.05 261.40,122.33 C258.71,122.64 255.37,122.53 253.99,122.10 ZM 331.00 90.00 C326.85,85.85 329.66,79.00 335.50,79.00 C337.87,79.00 339.36,79.67 340.44,81.22 C342.53,84.20 342.40,86.22 339.93,89.37 C337.44,92.53 333.79,92.79 331.00,90.00 ZM 388.66 95.54 C382.83,93.46 380.00,90.33 380.00,85.95 C380.00,78.56 385.70,70.16 389.95,71.28 C391.08,71.57 392.00,71.45 392.00,71.01 C392.00,69.22 399.20,71.98 401.28,74.57 C408.62,83.71 407.41,89.69 397.17,94.92 C394.92,96.06 392.95,96.98 392.79,96.96 C392.63,96.93 390.77,96.30 388.66,95.54 ZM 394.31 79.16 C393.99,75.50 393.53,72.29 393.31,72.03 C392.48,71.09 391.26,74.27 391.74,76.09 C392.00,77.12 391.94,79.10 391.59,80.48 C391.10,82.47 390.33,83.00 387.98,83.00 C385.90,83.00 385.00,83.49 385.00,84.62 C385.00,85.79 385.67,86.11 387.44,85.77 C388.77,85.51 390.42,85.64 391.09,86.06 C394.02,87.87 394.92,85.95 394.31,79.16 Z" fill="rgb(232,240,239)"/>
</g>
</svg>