<svg xmlns="http://www.w3.org/2000/svg" width="626" height="417" viewBox="0 0 626 417">
<g>
<path d="M 583.01 412.43 C587.84,415.26 591.05,416.83 594.36,417.00 L 473.48 417.00 C481.55,417.00 485.33,416.94 485.55,416.03 C485.76,415.18 482.90,413.59 477.55,410.62 L 476.96 410.30 L 471.43 407.22 L 463.78 411.38 C459.57,413.67 455.80,415.87 455.40,416.27 C455.00,416.67 462.00,417.00 470.97,417.00 L 446.66 417.00 L 456.76 411.44 C466.18,406.25 472.18,401.87 467.39,403.66 C465.66,404.31 465.63,404.22 467.00,402.50 C467.87,401.40 467.98,400.93 467.25,401.37 C466.56,401.78 466.00,401.64 466.00,401.06 C466.00,400.48 465.66,400.11 465.25,400.25 C464.84,400.38 461.65,398.63 458.16,396.35 L 451.82 392.20 L 458.16 388.46 C461.65,386.41 465.85,383.95 467.50,383.00 C482.10,374.61 487.00,371.30 487.00,369.82 C487.00,369.17 485.95,369.04 484.25,369.47 C482.74,369.85 480.20,370.15 478.62,370.11 C476.84,370.08 471.75,372.36 465.37,376.03 C459.67,379.31 454.73,382.00 454.41,382.00 C453.66,382.00 418.23,361.63 415.50,359.63 C414.40,358.82 413.86,357.80 414.30,357.36 C415.16,356.51 421.01,359.28 430.00,364.80 C433.02,366.66 439.62,370.59 444.66,373.55 L 453.82 378.92 L 463.40 373.71 C468.67,370.84 472.99,368.25 472.99,367.95 C473.00,367.65 468.10,364.61 462.10,361.19 C456.11,357.78 450.93,354.27 450.60,353.41 C450.27,352.54 450.00,350.23 450.00,348.26 C450.00,344.95 450.13,344.80 451.75,346.20 C453.21,347.47 463.46,353.52 478.68,362.10 C480.44,363.08 483.59,364.96 485.68,366.27 C502.20,376.54 520.11,386.00 523.03,386.00 C526.57,386.00 529.21,384.64 558.00,368.02 C568.17,362.15 586.17,351.80 598.00,345.02 C621.80,331.37 625.42,329.45 625.93,326.91 C625.97,326.71 625.99,326.51 626.00,326.30 L 626.00 411.50 C626.00,408.48 625.77,406.00 625.49,406.00 C624.72,406.00 607.00,416.17 607.00,416.61 C607.00,416.83 611.28,417.00 616.50,417.00 L 595.58 417.00 C599.61,416.79 604.09,414.54 612.00,410.00 C618.70,406.15 624.59,403.00 625.09,403.00 C625.59,403.00 626.00,397.38 626.00,390.50 C626.00,383.62 625.70,378.00 625.34,378.00 C624.97,378.00 622.51,379.39 619.86,381.09 L 615.05 384.17 L 612.12 382.09 C610.51,380.94 608.79,380.00 608.29,380.00 C607.80,380.00 605.26,378.65 602.66,377.00 C600.06,375.35 597.19,374.00 596.28,374.00 C593.47,374.00 586.14,378.03 583.25,381.17 C581.74,382.81 579.49,384.56 578.25,385.05 C575.97,385.96 575.13,388.00 577.04,388.00 C579.85,388.00 575.30,392.30 569.96,394.68 C565.76,396.55 564.00,397.89 564.00,399.20 C564.00,401.36 566.92,402.69 571.01,402.41 C572.84,402.28 573.70,402.63 573.41,403.38 C572.63,405.42 575.27,407.91 583.01,412.43 ZM 626.00 310.15 L 626.00 325.37 C626.00,325.17 625.99,324.97 625.99,324.75 C626.00,322.69 625.83,321.00 625.63,321.00 C625.42,321.00 621.93,322.96 617.88,325.35 C613.82,327.73 601.28,335.00 590.00,341.50 C578.72,348.00 562.75,357.23 554.50,362.02 C546.25,366.80 536.32,372.45 532.42,374.57 L 525.34 378.41 L 506.42 367.55 C496.02,361.57 482.58,353.85 476.57,350.39 C465.60,344.08 463.54,342.32 464.81,340.35 C466.09,338.37 517.83,308.88 518.36,309.83 C518.57,310.20 519.77,314.55 521.02,319.50 C523.56,329.45 526.39,333.50 533.50,337.33 C536.93,339.18 539.13,339.48 549.00,339.48 C558.85,339.48 561.08,339.17 564.50,337.34 C572.16,333.23 573.56,330.61 579.31,309.50 C579.67,308.19 579.99,307.01 580.29,305.95 C581.96,299.91 582.58,297.67 581.76,296.81 C581.27,296.31 580.29,296.29 578.72,296.25 C578.25,296.24 577.73,296.23 577.16,296.21 C574.12,296.07 571.42,295.75 571.16,295.49 C570.90,295.23 570.08,295.52 569.34,296.13 C568.60,296.74 566.59,297.36 564.87,297.51 L 561.75 297.78 L 562.40 291.40 C563.24,283.16 563.58,282.42 567.06,280.98 C569.94,279.78 576.54,280.33 577.18,281.81 C577.46,282.48 606.66,299.53 620.75,307.27 L 626.00 310.15 ZM 550.35 274.47 C550.66,275.27 550.59,276.10 550.21,276.29 C548.64,277.09 541.87,275.20 539.90,273.41 C534.49,268.52 528.79,254.47 524.52,235.52 L 523.85 232.54 L 526.43 235.33 C527.85,236.86 531.60,239.31 534.76,240.77 C539.68,243.04 541.79,243.41 549.50,243.35 C559.73,243.27 565.44,241.57 571.31,236.86 L 575.13 233.80 L 574.43 237.65 C573.16,244.61 564.79,267.00 563.46,267.00 C563.13,267.00 562.18,266.33 561.36,265.50 C556.96,261.10 548.02,268.39 550.35,274.47 ZM 458.35 272.14 C454.06,274.54 450.31,276.59 450.02,276.69 C449.73,276.80 444.44,273.95 438.25,270.36 L 427.00 263.83 L 427.00 256.42 C427.00,252.34 427.27,249.00 427.60,249.00 C427.92,249.00 429.39,249.84 430.85,250.86 C432.31,251.89 437.00,254.63 441.28,256.97 C444.98,258.99 446.96,260.19 449.03,260.36 C451.74,260.59 454.60,259.04 461.62,255.24 C462.19,254.94 462.78,254.62 463.40,254.29 C467.77,251.93 471.72,250.00 472.17,250.00 C472.63,250.00 473.00,253.16 473.00,257.03 C473.00,265.29 472.00,266.20 465.91,263.46 C463.02,262.16 461.63,261.97 460.83,262.77 C460.03,263.57 460.61,264.40 462.94,265.82 L 466.16 267.77 ZM 546.17 214.35 C544.21,216.12 541.02,216.35 537.00,215.01 C535.62,214.55 531.85,213.38 528.61,212.41 C522.14,210.46 517.71,207.27 515.46,202.93 C513.58,199.28 513.61,199.09 516.00,199.71 C517.61,200.13 518.00,199.74 518.00,197.74 C518.00,194.81 515.67,192.53 513.51,193.36 C512.28,193.83 512.00,192.97 512.00,188.72 L 512.01 183.50 L 513.96 186.71 C517.82,193.04 526.76,197.27 538.79,198.48 C547.16,199.32 548.00,200.17 548.00,207.78 C548.00,211.27 547.47,213.17 546.17,214.35 ZM 559.84 226.29 C552.23,230.01 541.54,228.95 536.15,223.93 C534.43,222.32 533.13,218.96 534.25,219.01 C534.39,219.02 536.97,219.69 540.00,220.50 C546.94,222.36 553.07,222.39 560.03,220.58 C563.04,219.80 565.59,219.25 565.70,219.37 C566.62,220.29 562.76,224.86 559.84,226.29 ZM 560.53 415.68 C558.85,416.81 560.45,417.00 571.44,417.00 C578.53,417.00 584.15,416.82 583.92,416.61 C583.69,416.39 580.81,414.63 577.51,412.70 L 571.53 409.19 L 567.01 411.78 C564.53,413.20 561.61,414.96 560.53,415.68 ZM 624.98 301.25 C625.01,302.45 622.61,302.12 620.47,300.62 C619.39,299.86 612.42,295.76 605.00,291.51 C591.20,283.60 587.45,281.00 589.86,281.00 C590.57,281.00 594.15,282.74 597.83,284.86 C601.50,286.98 609.10,291.37 614.73,294.61 C620.36,297.85 624.97,300.84 624.98,301.25 ZM 553.39 298.75 C554.24,301.31 553.34,301.57 550.65,299.54 C549.23,298.46 548.24,298.39 546.42,299.22 C544.83,299.94 542.96,299.99 540.77,299.36 L 537.50 298.41 L 544.50 294.29 L 551.50 290.17 L 552.08 293.34 C552.39,295.08 552.99,297.51 553.39,298.75 ZM 318.15 417.00 L 310.09 417.00 L 309.39 413.25 C309.34,412.99 309.29,412.75 309.25,412.52 C309.00,411.24 308.85,410.48 309.11,410.30 C309.50,410.03 310.81,411.08 314.08,413.72 C314.46,414.03 314.88,414.37 315.33,414.73 L 318.15 417.00 ZM 530.37 207.45 C532.32,210.42 535.00,210.83 535.00,208.15 C535.00,205.49 531.27,202.33 529.83,203.77 C528.99,204.61 529.14,205.56 530.37,207.45 ZM 623.44 341.52 C625.97,343.45 626.00,343.43 626.00,340.50 C626.00,337.80 625.33,337.47 623.00,339.03 C621.70,339.90 621.76,340.24 623.44,341.52 Z" fill="rgb(41,106,147)"/>
<path d="M 483.42 369.65 C478.99,371.66 467.83,377.97 458.50,383.82 C449.46,389.50 441.42,394.26 432.35,399.33 C417.85,407.43 417.19,407.37 398.50,396.51 C393.55,393.63 385.00,388.67 379.50,385.50 C361.43,375.06 359.83,373.91 361.10,372.38 C361.73,371.62 362.96,371.00 363.83,371.00 C365.20,371.00 379.36,363.24 404.00,349.00 C407.58,346.94 418.15,340.86 427.50,335.49 C436.85,330.13 446.08,324.83 448.00,323.73 C462.53,315.38 476.63,310.31 478.83,312.66 C479.47,313.35 480.00,314.80 480.00,315.88 C480.00,317.66 480.34,317.74 483.73,316.81 C485.78,316.24 493.49,312.90 500.85,309.39 C514.25,302.99 517.00,302.08 517.00,304.06 C517.00,304.64 517.52,304.80 518.15,304.40 C518.79,304.01 519.04,304.12 518.72,304.64 C518.40,305.17 518.48,306.16 518.90,306.84 C520.11,308.80 531.25,302.08 530.65,299.76 C530.37,298.70 530.74,298.00 531.59,298.00 C532.37,298.00 533.00,298.46 533.00,299.03 C533.00,300.14 538.26,297.72 541.50,295.11 C542.67,294.17 543.37,292.59 543.19,291.32 C542.99,289.92 543.62,288.74 544.96,288.02 C547.44,286.69 549.37,287.60 548.55,289.72 C548.12,290.86 548.48,291.11 549.99,290.71 C550.31,290.63 550.59,290.58 550.83,290.57 L 544.50 294.29 L 537.50 298.41 L 540.77 299.36 C542.96,299.99 544.83,299.94 546.42,299.22 C548.24,298.39 549.23,298.46 550.65,299.54 C552.57,300.99 553.58,301.27 553.69,300.37 C554.20,302.07 554.76,303.65 555.28,304.75 C557.55,309.57 559.29,306.69 561.55,294.39 C561.89,292.51 562.29,290.58 562.68,288.85 C562.59,289.61 562.50,290.46 562.40,291.40 L 561.75 297.78 L 564.87 297.51 C566.59,297.36 568.60,296.74 569.34,296.13 C570.08,295.52 570.90,295.23 571.16,295.49 C571.42,295.75 574.12,296.07 577.16,296.21 C577.73,296.23 578.25,296.24 578.72,296.25 C580.29,296.29 581.27,296.31 581.76,296.81 C582.58,297.67 581.96,299.91 580.29,305.95 C579.99,307.01 579.67,308.19 579.31,309.50 C576.94,318.18 575.32,323.73 573.69,327.55 C572.97,325.65 569.50,325.88 567.23,328.00 C565.39,329.72 565.00,329.80 565.00,328.48 C565.00,327.60 564.54,327.17 563.98,327.52 C563.41,327.86 563.07,327.60 563.23,326.94 C563.60,325.30 542.36,325.03 535.25,326.59 C532.36,327.22 530.00,327.52 530.00,327.25 C530.00,326.98 529.33,327.31 528.51,327.99 C527.69,328.67 526.34,328.96 525.51,328.64 C524.82,328.38 524.38,328.32 524.18,328.45 C522.95,326.09 521.97,323.20 521.02,319.50 C519.77,314.55 518.57,310.20 518.36,309.83 C517.83,308.88 466.09,338.37 464.81,340.35 C463.54,342.32 465.60,344.08 476.57,350.39 C482.58,353.85 496.02,361.57 506.42,367.55 L 525.34 378.41 L 532.42 374.57 C536.32,372.45 546.25,366.80 554.50,362.02 C562.75,357.23 578.72,348.00 590.00,341.50 C601.28,335.00 613.82,327.73 617.88,325.35 C621.93,322.96 625.42,321.00 625.63,321.00 C625.83,321.00 626.00,322.69 625.99,324.75 C625.99,324.97 626.00,325.17 626.00,325.37 L 626.00 326.30 C625.99,326.51 625.97,326.71 625.93,326.91 C625.42,329.45 621.80,331.37 598.00,345.02 C586.17,351.80 568.17,362.15 558.00,368.02 C529.21,384.64 526.57,386.00 523.03,386.00 C520.11,386.00 502.20,376.54 485.68,366.27 C483.59,364.96 480.44,363.08 478.68,362.10 C463.46,353.52 453.21,347.47 451.75,346.20 C450.13,344.80 450.00,344.95 450.00,348.26 C450.00,350.23 450.27,352.54 450.60,353.41 C450.93,354.27 456.11,357.78 462.10,361.19 C468.10,364.61 473.00,367.65 472.99,367.95 C472.99,368.25 468.67,370.84 463.40,373.71 L 453.82 378.92 L 444.66 373.55 C439.62,370.59 433.02,366.66 430.00,364.80 C421.01,359.28 415.16,356.51 414.30,357.36 C413.86,357.80 414.40,358.82 415.50,359.63 C418.23,361.63 453.66,382.00 454.41,382.00 C454.73,382.00 459.67,379.31 465.37,376.03 C471.75,372.36 476.84,370.08 478.62,370.11 C479.94,370.14 481.92,369.94 483.42,369.65 ZM 309.66 410.38 L 309.72 408.28 C309.88,401.58 310.36,398.99 311.80,397.07 C313.81,394.37 321.31,390.00 323.93,390.00 C324.81,390.00 327.10,388.96 329.02,387.68 C330.93,386.41 335.20,384.79 338.50,384.09 C341.80,383.40 346.30,381.64 348.50,380.20 C350.70,378.75 353.72,377.42 355.20,377.23 C357.79,376.91 371.05,384.04 400.53,401.61 C406.53,405.18 411.47,407.34 415.23,408.04 C421.78,409.25 423.24,408.67 442.14,397.36 C447.99,393.86 453.06,391.00 453.41,391.00 C453.65,391.00 455.35,390.10 457.61,388.79 L 451.82 392.20 L 458.16 396.35 C461.65,398.63 464.84,400.38 465.25,400.25 C465.66,400.11 466.00,400.48 466.00,401.06 C466.00,401.64 466.56,401.78 467.25,401.37 C467.98,400.93 467.87,401.40 467.00,402.50 C465.63,404.22 465.66,404.31 467.39,403.66 C472.18,401.87 466.18,406.25 456.76,411.44 L 446.66 417.00 L 318.15 417.00 L 315.33 414.73 C314.88,414.37 314.46,414.03 314.08,413.72 C311.71,411.81 310.37,410.73 309.66,410.38 ZM 583.01 412.43 C575.27,407.91 572.63,405.42 573.41,403.38 C573.70,402.63 572.84,402.28 571.01,402.41 C566.92,402.69 564.00,401.36 564.00,399.20 C564.00,397.89 565.76,396.55 569.96,394.68 C575.30,392.30 579.85,388.00 577.04,388.00 C575.13,388.00 575.97,385.96 578.25,385.05 C579.49,384.56 581.74,382.81 583.25,381.17 C586.14,378.03 593.47,374.00 596.28,374.00 C597.19,374.00 600.06,375.35 602.66,377.00 C605.26,378.65 607.80,380.00 608.29,380.00 C608.79,380.00 610.51,380.94 612.12,382.09 L 615.05 384.17 L 619.86 381.09 C622.51,379.39 624.97,378.00 625.34,378.00 C625.70,378.00 626.00,383.62 626.00,390.50 C626.00,397.38 625.59,403.00 625.09,403.00 C624.59,403.00 618.70,406.15 612.00,410.00 C604.09,414.54 599.61,416.79 595.58,417.00 L 594.36 417.00 C591.05,416.83 587.84,415.26 583.01,412.43 ZM 564.44 282.54 C564.93,281.22 565.22,279.59 565.10,278.72 C564.82,276.62 567.84,273.87 573.76,270.83 L 578.01 268.64 L 583.76 270.87 C590.63,273.54 597.22,276.94 606.00,282.33 C609.58,284.53 614.97,287.69 618.00,289.35 C621.03,291.01 623.65,292.74 623.83,293.19 C624.02,293.63 624.58,294.00 625.08,294.00 C625.63,294.00 626.00,235.42 626.00,147.00 L 626.00 310.15 L 620.75 307.27 C606.66,299.53 577.46,282.48 577.18,281.81 C576.54,280.33 569.94,279.78 567.06,280.98 C565.86,281.47 565.04,281.88 564.44,282.54 ZM 473.00 256.83 C472.99,253.05 472.62,250.00 472.17,250.00 C471.72,250.00 467.77,251.93 463.40,254.29 C462.78,254.62 462.19,254.94 461.62,255.24 C454.60,259.04 451.74,260.59 449.03,260.36 C446.96,260.19 444.98,258.99 441.28,256.97 C437.00,254.63 432.31,251.89 430.85,250.86 C429.58,249.97 428.31,249.22 427.78,249.04 C428.22,248.22 428.89,247.58 429.94,246.70 C431.56,245.34 432.58,243.89 432.19,243.49 C431.81,243.08 432.44,243.04 433.59,243.39 C435.51,243.98 440.23,241.38 442.11,238.70 C442.45,238.22 443.03,237.91 443.40,238.02 C443.78,238.12 445.47,237.63 447.16,236.93 C449.57,235.94 450.65,235.92 452.16,236.87 C453.22,237.53 456.55,239.40 459.55,241.03 C462.55,242.65 466.81,245.12 469.00,246.50 L 473.00 249.03 L 473.00 256.54 C473.00,256.64 473.00,256.74 473.00,256.83 ZM 455.40 416.27 C455.80,415.87 459.57,413.67 463.78,411.38 L 471.43 407.22 L 476.96 410.30 L 477.55 410.62 C482.90,413.59 485.76,415.18 485.55,416.03 C485.33,416.94 481.55,417.00 473.48,417.00 L 470.97 417.00 C462.00,417.00 455.00,416.67 455.40,416.27 ZM 607.00 416.61 C607.00,416.17 624.72,406.00 625.49,406.00 C625.77,406.00 626.00,408.48 626.00,411.50 L 626.00 417.00 L 616.50 417.00 C611.28,417.00 607.00,416.83 607.00,416.61 ZM 560.53 415.68 C561.61,414.96 564.53,413.20 567.01,411.78 L 571.53 409.19 L 577.51 412.70 C580.81,414.63 583.69,416.39 583.92,416.61 C584.15,416.82 578.53,417.00 571.44,417.00 C560.45,417.00 558.85,416.81 560.53,415.68 ZM 624.98 301.25 C624.97,300.84 620.36,297.85 614.73,294.61 C609.10,291.37 601.50,286.98 597.83,284.86 C594.15,282.74 590.57,281.00 589.86,281.00 C587.45,281.00 591.20,283.60 605.00,291.51 C612.42,295.76 619.39,299.86 620.47,300.62 C622.61,302.12 625.01,302.45 624.98,301.25 ZM 572.85 321.31 L 574.36 325.15 L 575.79 321.56 C577.30,317.78 576.32,315.00 573.46,315.00 C571.42,315.00 571.22,317.14 572.85,321.31 ZM 512.52 193.25 C512.75,193.52 513.07,193.53 513.51,193.36 C515.67,192.53 518.00,194.81 518.00,197.74 C518.00,199.74 517.61,200.13 516.00,199.71 C514.45,199.31 513.89,199.25 514.20,200.24 C513.40,198.18 512.85,195.86 512.52,193.25 ZM 530.37 207.45 C529.14,205.56 528.99,204.61 529.83,203.77 C531.27,202.33 535.00,205.49 535.00,208.15 C535.00,210.83 532.32,210.42 530.37,207.45 ZM 571.13 332.16 C569.44,334.42 567.43,335.77 564.50,337.34 C562.00,338.68 560.13,339.21 555.47,339.39 C559.76,339.06 562.20,338.44 564.62,337.20 C566.89,336.04 569.34,334.07 571.13,332.16 ZM 310.09 417.00 L 0.00 417.00 L 309.50 417.00 L 309.57 414.22 ZM 537.63 338.89 C536.07,338.57 534.88,338.07 533.50,337.33 C530.51,335.72 528.27,334.07 526.50,331.95 C526.73,332.19 526.98,332.43 527.25,332.68 C530.67,335.92 533.68,337.73 537.63,338.89 ZM 459.50 387.68 C459.86,387.46 460.24,387.23 460.62,387.00 C464.24,384.80 467.34,383.00 467.50,383.00 C467.50,383.00 467.50,383.00 467.51,383.00 L 467.50 383.00 C466.06,383.83 462.66,385.82 459.50,387.68 ZM 551.61 290.77 C551.89,291.02 552.00,291.49 552.00,292.23 C552.00,292.55 552.03,292.94 552.09,293.38 L 552.08 293.34 ZM 512.01 183.78 L 512.01 186.30 L 511.83 183.50 ZM 475.65 378.25 C478.37,376.58 481.17,374.83 482.96,373.66 C481.20,374.86 478.81,376.36 475.65,378.25 ZM 486.41 370.91 C486.96,370.23 487.07,369.70 486.72,369.37 C486.90,369.47 487.00,369.62 487.00,369.82 C487.00,370.10 486.82,370.46 486.41,370.91 ZM 427.17 251.23 C427.07,252.55 427.00,254.35 427.00,256.33 C427.00,254.00 427.03,252.41 427.17,251.23 ZM 471.60 264.49 C470.57,265.27 468.83,264.78 465.91,263.46 C468.82,264.77 470.57,265.25 471.60,264.49 ZM 514.74 201.51 C514.90,201.82 515.08,202.18 515.28,202.58 C515.09,202.23 514.91,201.87 514.74,201.51 Z" fill="rgb(68,181,227)"/>
<path d="M 550.35 274.47 C548.02,268.39 556.96,261.10 561.36,265.50 C562.18,266.33 563.13,267.00 563.46,267.00 C564.77,267.00 572.86,245.40 574.35,238.04 C573.95,240.10 573.30,242.62 572.86,243.82 C572.39,245.09 572.00,246.55 572.00,247.07 C572.00,248.64 575.30,247.96 579.50,245.50 C581.70,244.22 585.08,242.42 587.00,241.52 C588.92,240.62 591.77,239.23 593.33,238.44 C594.89,237.65 596.80,237.00 597.58,237.00 C599.80,237.00 599.24,238.96 596.75,239.91 C595.51,240.38 593.68,241.69 592.67,242.81 C590.89,244.78 590.89,244.87 592.68,245.83 C593.97,246.52 595.53,246.40 597.87,245.41 C602.71,243.38 608.50,244.59 615.57,249.12 C618.91,251.25 622.62,253.00 623.82,253.00 L 625.75 253.00 C625.59,279.11 625.36,294.00 625.08,294.00 C624.58,294.00 624.02,293.63 623.83,293.19 C623.65,292.74 621.03,291.01 618.00,289.35 C614.97,287.69 609.58,284.53 606.00,282.33 C597.22,276.94 590.63,273.54 583.76,270.87 L 578.01 268.64 L 573.76 270.83 C567.84,273.87 564.82,276.62 565.10,278.72 C565.22,279.59 564.93,281.22 564.44,282.54 C563.49,283.59 563.10,285.25 562.68,288.85 C562.54,289.48 562.39,290.13 562.25,290.79 C562.93,286.48 563.47,281.92 563.70,278.11 C564.25,269.06 564.18,268.64 561.88,266.88 C560.57,265.87 558.56,265.03 557.40,265.02 C555.72,265.00 555.29,265.64 555.21,268.19 C555.16,269.95 554.58,275.36 553.92,280.21 C552.89,287.71 553.00,296.32 554.01,301.39 C553.90,301.06 553.79,300.72 553.69,300.37 C553.73,300.02 553.63,299.48 553.39,298.75 C552.99,297.52 552.40,295.12 552.09,293.38 C552.03,292.94 552.00,292.55 552.00,292.23 C552.00,291.49 551.89,291.02 551.61,290.77 L 551.50 290.17 L 550.83 290.57 C550.59,290.58 550.31,290.63 549.99,290.71 C548.48,291.11 548.12,290.86 548.55,289.72 C549.37,287.60 547.44,286.69 544.96,288.02 C543.62,288.74 542.99,289.92 543.19,291.32 C543.37,292.59 542.67,294.17 541.50,295.11 C538.26,297.72 533.00,300.14 533.00,299.03 C533.00,298.46 532.37,298.00 531.59,298.00 C530.74,298.00 530.37,298.70 530.65,299.76 C531.25,302.08 520.11,308.80 518.90,306.84 C518.48,306.16 518.40,305.17 518.72,304.64 C519.04,304.12 518.79,304.01 518.15,304.40 C517.52,304.80 517.00,304.64 517.00,304.06 C517.00,302.08 514.25,302.99 500.85,309.39 C493.49,312.90 485.78,316.24 483.73,316.81 C480.34,317.74 480.00,317.66 480.00,315.88 C480.00,314.80 479.47,313.35 478.83,312.66 C476.63,310.31 462.53,315.38 448.00,323.73 C446.08,324.83 436.85,330.13 427.50,335.49 C418.15,340.86 407.58,346.94 404.00,349.00 C379.36,363.24 365.20,371.00 363.83,371.00 C362.96,371.00 361.73,371.62 361.10,372.38 C359.83,373.91 361.43,375.06 379.50,385.50 C385.00,388.67 393.55,393.63 398.50,396.51 C417.19,407.37 417.85,407.43 432.35,399.33 C441.42,394.26 449.46,389.50 458.50,383.82 C467.83,377.97 478.99,371.66 483.42,369.65 C483.72,369.59 484.00,369.53 484.25,369.47 C485.43,369.17 486.30,369.14 486.72,369.37 C487.07,369.70 486.96,370.23 486.41,370.91 C485.80,371.59 484.69,372.48 482.96,373.66 L 482.96 373.66 C481.17,374.83 478.37,376.58 475.65,378.25 C473.35,379.62 470.65,381.19 467.51,383.00 L 467.50 383.00 C467.34,383.00 464.24,384.80 460.62,387.00 C460.24,387.23 459.86,387.46 459.50,387.68 C459.04,387.94 458.60,388.21 458.16,388.46 L 457.61 388.79 C455.35,390.10 453.65,391.00 453.41,391.00 C453.06,391.00 447.99,393.86 442.14,397.36 C423.24,408.67 421.78,409.25 415.23,408.04 C411.47,407.34 406.53,405.18 400.53,401.61 C371.05,384.04 357.79,376.91 355.20,377.23 C353.72,377.42 350.70,378.75 348.50,380.20 C346.30,381.64 341.80,383.40 338.50,384.09 C335.20,384.79 330.93,386.41 329.02,387.68 C327.10,388.96 324.81,390.00 323.93,390.00 C321.31,390.00 313.81,394.37 311.80,397.07 C310.36,398.99 309.88,401.58 309.72,408.28 L 309.66 410.38 L 309.65 410.37 C309.64,407.99 309.68,404.96 309.77,402.62 C309.98,397.36 310.36,396.40 313.36,393.62 C316.24,390.96 326.60,384.62 339.95,377.38 C341.85,376.34 343.98,374.98 344.69,374.34 C345.39,373.70 346.53,372.96 347.23,372.69 C348.38,372.25 347.07,370.86 342.69,367.87 C342.19,367.52 341.74,365.00 341.70,362.26 C341.62,356.95 343.60,353.95 349.00,351.24 C350.38,350.55 353.30,348.86 355.50,347.47 C357.70,346.09 360.17,344.65 361.00,344.28 C361.83,343.91 366.33,341.39 371.00,338.67 C380.34,333.26 384.22,331.02 389.50,328.00 C391.42,326.90 394.69,325.03 396.75,323.85 C398.81,322.67 402.98,320.35 406.00,318.70 C409.02,317.05 412.69,314.86 414.15,313.85 C415.61,312.83 417.14,312.00 417.54,312.00 C417.95,312.00 420.58,310.57 423.39,308.83 C426.20,307.09 433.00,303.12 438.50,300.01 C444.00,296.90 450.30,293.32 452.50,292.04 C454.70,290.76 458.52,288.58 461.00,287.19 C471.53,281.28 477.52,277.24 477.78,275.87 C477.95,275.04 476.44,273.54 474.28,272.38 C472.20,271.26 469.54,269.74 468.36,269.00 C466.81,268.03 465.83,268.06 461.62,270.31 L 466.16 267.77 L 462.94 265.82 C460.61,264.40 460.03,263.57 460.83,262.77 C461.63,261.97 463.02,262.16 465.91,263.46 C466.12,263.56 466.33,263.65 466.52,263.73 C469.07,264.83 470.64,265.19 471.60,264.49 C472.31,263.96 472.68,262.84 472.86,261.00 C472.66,263.31 472.24,264.33 471.45,264.77 C470.24,265.45 470.94,266.16 474.70,268.06 C477.34,269.40 480.05,271.17 480.72,271.99 C482.50,274.20 482.26,278.46 480.25,280.26 C478.73,281.63 463.24,290.80 449.00,298.77 C446.52,300.15 440.30,303.70 435.17,306.64 C430.04,309.59 425.70,312.00 425.52,312.00 C425.35,312.00 422.24,313.80 418.62,316.00 C415.00,318.20 411.73,320.00 411.35,320.00 C410.97,320.00 409.95,320.62 409.08,321.37 C408.21,322.13 405.02,324.11 402.00,325.77 C398.98,327.44 393.64,330.42 390.15,332.40 C386.66,334.38 383.67,336.00 383.51,336.00 C383.34,336.00 380.24,337.80 376.62,340.00 C373.00,342.20 369.58,344.00 369.02,344.00 C368.46,344.00 368.00,344.40 368.00,344.88 C368.00,345.37 367.21,346.02 366.25,346.32 C363.98,347.05 352.54,353.48 348.86,356.10 C346.58,357.72 346.00,358.90 346.00,361.90 C346.00,364.99 346.49,365.91 348.75,367.08 C350.26,367.86 351.74,368.81 352.02,369.19 C352.55,369.89 359.05,366.39 382.00,353.02 C388.88,349.01 396.98,344.38 400.00,342.73 C403.02,341.07 406.17,339.18 407.00,338.51 C407.83,337.85 410.98,335.96 414.00,334.31 C424.88,328.40 457.55,309.74 460.00,308.04 C461.38,307.09 466.06,304.39 470.40,302.05 C474.75,299.71 481.05,296.12 484.40,294.07 C489.98,290.67 502.27,284.46 511.00,280.64 C512.92,279.80 515.62,278.44 517.00,277.62 C518.38,276.79 520.62,275.88 522.00,275.58 C523.38,275.28 525.96,274.14 527.75,273.04 C530.92,271.08 531.00,270.86 531.00,263.95 C531.00,260.76 530.71,257.50 530.31,255.87 C533.02,263.39 535.93,269.07 538.80,272.29 C533.78,267.31 533.01,268.78 533.69,280.34 C534.02,286.04 534.91,291.76 535.72,293.36 L 537.17 296.23 L 538.39 293.86 C539.06,292.56 540.12,289.48 540.75,287.00 L 540.91 286.37 C542.41,280.45 542.97,278.23 542.29,276.49 C541.91,275.50 541.13,274.67 539.90,273.41 C541.88,275.20 548.64,277.09 550.21,276.29 C550.59,276.10 550.66,275.27 550.35,274.47 ZM 512.52 193.25 C512.85,195.86 513.40,198.18 514.20,200.24 C514.21,200.27 514.22,200.29 514.23,200.31 C511.44,194.10 510.59,187.99 511.86,183.21 C513.95,175.37 517.22,169.97 522.95,164.86 C528.08,160.28 531.20,159.07 533.50,160.77 C534.08,161.19 534.50,166.99 534.50,174.50 C534.50,181.65 534.78,189.41 535.12,191.75 C535.52,194.49 535.36,196.00 534.67,196.00 C533.96,196.00 533.94,196.34 534.59,196.99 C535.14,197.54 537.81,198.26 540.54,198.61 C541.62,198.75 542.54,198.91 543.34,199.12 C542.15,198.85 540.66,198.67 538.79,198.48 C526.76,197.27 517.82,193.04 513.96,186.71 L 512.01 183.50 L 512.01 183.78 L 511.83 183.50 L 512.01 186.30 L 512.00 188.72 C512.00,191.43 512.12,192.77 512.52,193.25 ZM 571.13 332.16 C569.34,334.07 566.89,336.04 564.62,337.20 C562.20,338.44 559.76,339.06 555.47,339.39 C553.75,339.46 551.65,339.48 549.00,339.48 C543.11,339.48 539.95,339.37 537.63,338.89 C533.68,337.73 530.67,335.92 527.25,332.68 C526.98,332.43 526.73,332.19 526.50,331.95 C525.62,330.91 524.86,329.76 524.18,328.45 C524.38,328.32 524.82,328.38 525.51,328.64 C526.34,328.96 527.69,328.67 528.51,327.99 C529.33,327.31 530.00,326.98 530.00,327.25 C530.00,327.52 532.36,327.22 535.25,326.59 C542.36,325.03 563.60,325.30 563.23,326.94 C563.07,327.60 563.41,327.86 563.98,327.52 C564.54,327.17 565.00,327.60 565.00,328.48 C565.00,329.80 565.39,329.72 567.23,328.00 C569.50,325.88 572.97,325.65 573.69,327.55 C572.87,329.47 572.04,330.95 571.13,332.16 ZM 529.98 254.96 C528.88,252.67 524.10,235.49 523.26,230.74 C522.62,227.14 524.58,222.53 527.95,219.69 C530.36,217.67 531.18,214.15 528.92,215.55 C528.06,216.08 523.40,212.01 519.64,207.95 C521.96,209.82 524.96,211.31 528.61,212.41 C531.85,213.38 535.62,214.55 537.00,215.01 C538.61,215.55 540.09,215.83 541.41,215.87 C540.81,215.88 540.17,215.86 539.47,215.81 C535.61,215.56 534.68,215.82 534.46,217.23 C534.31,218.16 535.28,219.00 536.97,219.70 C535.42,219.29 534.34,219.02 534.25,219.01 C533.13,218.96 534.43,222.32 536.15,223.93 C539.10,226.67 543.62,228.23 548.36,228.48 C544.83,228.52 542.00,228.88 542.00,229.31 C542.00,229.75 541.66,229.91 541.25,229.66 C539.97,228.87 539.93,235.38 541.20,237.82 C542.15,239.63 542.14,240.29 541.17,240.89 C540.37,241.39 541.33,242.12 543.87,242.96 C544.28,243.09 544.70,243.21 545.14,243.31 C540.73,243.16 538.60,242.54 534.76,240.77 C531.60,239.31 527.85,236.86 526.43,235.33 L 523.85 232.54 L 524.52 235.52 C526.16,242.81 528.02,249.37 529.98,254.96 ZM 576.07 205.96 C572.30,207.98 569.09,207.20 566.99,203.75 C564.56,199.77 564.48,196.78 566.68,193.21 C569.52,188.63 574.30,184.00 576.20,184.00 C577.82,184.00 578.00,185.05 578.00,194.46 C578.00,203.79 577.79,205.04 576.07,205.96 ZM 442.75 238.14 C442.51,238.26 442.28,238.46 442.11,238.70 C440.94,240.36 438.68,242.00 436.67,242.85 C437.99,241.75 437.88,241.42 435.92,239.94 C434.51,238.87 433.92,237.66 434.31,236.63 C435.10,234.57 437.40,234.54 439.43,236.57 C440.29,237.44 441.00,237.80 441.00,237.37 C441.00,236.95 441.51,237.11 442.12,237.72 C442.31,237.91 442.52,238.05 442.75,238.14 ZM 572.85 321.31 C571.22,317.14 571.42,315.00 573.46,315.00 C576.32,315.00 577.30,317.78 575.79,321.56 L 574.36 325.15 ZM 434.16 243.48 C433.95,243.47 433.76,243.44 433.59,243.39 C432.44,243.04 431.81,243.08 432.19,243.49 C432.58,243.89 431.56,245.34 429.94,246.70 C429.67,246.93 429.43,247.14 429.20,247.34 C429.76,246.68 429.41,246.28 428.02,245.30 C425.55,243.57 425.41,241.44 427.72,240.55 C428.80,240.14 429.92,240.54 430.72,241.64 C431.43,242.60 432.00,243.02 432.00,242.57 C432.00,242.12 432.67,242.32 433.50,243.00 C433.74,243.20 433.96,243.36 434.16,243.48 ZM 542.71 154.64 C542.05,155.27 540.45,156.10 539.16,156.49 C537.09,157.11 536.95,156.97 537.86,155.26 C538.43,154.20 539.62,152.73 540.52,151.98 C541.90,150.84 542.29,150.85 543.04,152.06 C543.60,152.97 543.48,153.92 542.71,154.64 ZM 623.44 341.52 C621.76,340.24 621.70,339.90 623.00,339.03 C625.33,337.47 626.00,337.80 626.00,340.50 C626.00,343.43 625.97,343.45 623.44,341.52 ZM 542.64 221.13 C547.06,221.81 552.52,221.94 557.05,221.25 C552.14,222.18 547.55,222.14 542.64,221.13 ZM 559.60 242.45 C564.02,241.25 568.25,239.32 571.31,236.86 C567.71,239.75 564.16,241.51 559.60,242.45 ZM 559.84 226.29 C561.50,225.47 563.47,223.64 564.69,222.04 C563.72,224.01 561.65,225.62 558.83,226.74 C559.17,226.60 559.51,226.45 559.84,226.29 ZM 456.60 273.11 L 449.84 276.94 L 445.46 274.43 C448.09,275.87 449.86,276.76 450.02,276.69 C450.27,276.60 453.08,275.07 456.60,273.11 ZM 558.38 306.05 C557.66,307.20 556.94,307.25 556.17,306.27 C557.00,307.18 557.65,307.09 558.38,306.05 ZM 546.17 214.35 C546.42,214.12 546.64,213.87 546.84,213.58 C546.20,214.59 545.27,215.22 543.96,215.56 C544.81,215.31 545.55,214.90 546.17,214.35 ZM 452.09 236.83 C453.19,237.51 456.55,239.40 459.55,241.03 C456.55,239.40 453.22,237.53 452.16,236.87 C450.94,236.11 450.01,235.97 448.44,236.46 C450.00,235.91 450.86,236.06 452.09,236.83 ZM 428.65 247.87 C428.29,248.25 428.00,248.62 427.78,249.04 C427.98,248.57 428.23,248.23 428.52,247.98 C428.57,247.94 428.61,247.91 428.65,247.87 ZM 427.36 264.04 L 427.00 263.83 L 427.00 263.83 ZM 548.00 206.91 C548.00,207.11 548.00,207.32 548.00,207.54 L 548.00 207.63 C548.00,207.38 548.00,207.14 548.00,206.91 Z" fill="rgb(149,217,219)"/>
<path d="M 0.00 208.50 L 0.00 0.00 L 313.00 0.00 L 626.00 0.00 L 626.00 126.50 L 626.00 253.00 L 623.82 253.00 C622.62,253.00 618.91,251.25 615.57,249.12 C608.50,244.59 602.71,243.38 597.87,245.41 C595.53,246.40 593.97,246.52 592.68,245.83 C590.89,244.87 590.89,244.78 592.67,242.81 C593.68,241.69 595.51,240.38 596.75,239.91 C599.24,238.96 599.80,237.00 597.58,237.00 C596.80,237.00 594.89,237.65 593.33,238.44 C591.77,239.23 588.92,240.62 587.00,241.52 C585.08,242.42 581.70,244.22 579.50,245.50 C575.30,247.96 572.00,248.64 572.00,247.07 C572.00,246.55 572.39,245.09 572.86,243.82 C573.33,242.54 574.04,239.77 574.42,237.65 L 575.13 233.80 L 571.31 236.86 C564.33,242.46 551.20,245.38 543.87,242.96 C541.33,242.12 540.37,241.39 541.17,240.89 C542.14,240.29 542.15,239.63 541.20,237.82 C539.93,235.38 539.97,228.87 541.25,229.66 C541.66,229.91 542.00,229.75 542.00,229.31 C542.00,228.86 545.04,228.49 548.75,228.48 C556.55,228.45 562.78,225.93 564.69,222.03 C565.36,220.68 565.81,219.48 565.70,219.37 C565.59,219.25 563.02,219.83 560.00,220.65 C550.70,223.15 533.88,220.90 534.46,217.23 C534.68,215.82 535.61,215.56 539.47,215.81 C546.02,216.24 548.00,214.32 548.00,207.54 C548.00,200.97 546.68,199.39 540.54,198.61 C537.81,198.26 535.14,197.54 534.59,196.99 C533.94,196.34 533.96,196.00 534.67,196.00 C535.36,196.00 535.52,194.49 535.12,191.75 C534.78,189.41 534.50,181.65 534.50,174.50 C534.50,166.99 534.08,161.19 533.50,160.77 C531.20,159.07 528.08,160.28 522.95,164.86 C517.22,169.97 513.95,175.37 511.86,183.21 C510.47,188.43 511.62,195.21 515.03,202.01 C517.11,206.14 527.59,216.37 528.92,215.55 C531.18,214.15 530.36,217.67 527.95,219.69 C524.58,222.53 522.62,227.14 523.26,230.74 C524.11,235.55 529.01,253.16 530.03,255.05 C530.56,256.05 531.00,260.05 531.00,263.95 C531.00,270.86 530.92,271.08 527.75,273.04 C525.96,274.14 523.38,275.28 522.00,275.58 C520.62,275.88 518.38,276.79 517.00,277.62 C515.62,278.44 512.92,279.80 511.00,280.64 C502.27,284.46 489.98,290.67 484.40,294.07 C481.05,296.12 474.75,299.71 470.40,302.05 C466.06,304.39 461.38,307.09 460.00,308.04 C457.55,309.74 424.88,328.40 414.00,334.31 C410.98,335.96 407.83,337.85 407.00,338.51 C406.17,339.18 403.02,341.07 400.00,342.73 C396.98,344.38 388.88,349.01 382.00,353.02 C359.05,366.39 352.55,369.89 352.02,369.19 C351.74,368.81 350.26,367.86 348.75,367.08 C346.49,365.91 346.00,364.99 346.00,361.90 C346.00,358.90 346.58,357.72 348.86,356.10 C352.54,353.48 363.98,347.05 366.25,346.32 C367.21,346.02 368.00,345.37 368.00,344.88 C368.00,344.40 368.46,344.00 369.02,344.00 C369.58,344.00 373.00,342.20 376.62,340.00 C380.24,337.80 383.34,336.00 383.51,336.00 C383.67,336.00 386.66,334.38 390.15,332.40 C393.64,330.42 398.98,327.44 402.00,325.77 C405.02,324.11 408.21,322.13 409.08,321.37 C409.95,320.62 410.97,320.00 411.35,320.00 C411.73,320.00 415.00,318.20 418.62,316.00 C422.24,313.80 425.35,312.00 425.52,312.00 C425.70,312.00 430.04,309.59 435.17,306.64 C440.30,303.70 446.52,300.15 449.00,298.77 C463.24,290.80 478.73,281.63 480.25,280.26 C482.26,278.46 482.50,274.20 480.72,271.99 C480.05,271.17 477.34,269.40 474.70,268.06 C470.94,266.16 470.24,265.45 471.45,264.77 C472.63,264.11 473.00,262.14 473.00,256.46 L 473.00 249.03 L 469.00 246.50 C466.81,245.12 462.55,242.65 459.55,241.03 C456.55,239.40 453.19,237.51 452.09,236.83 C450.46,235.81 449.48,235.88 446.67,237.22 C444.14,238.42 442.96,238.56 442.12,237.72 C441.51,237.11 441.00,236.95 441.00,237.37 C441.00,237.80 440.29,237.44 439.43,236.57 C437.40,234.54 435.10,234.57 434.31,236.63 C433.92,237.66 434.51,238.87 435.92,239.94 C437.93,241.45 437.99,241.76 436.58,242.94 C435.32,243.98 434.70,244.00 433.50,243.00 C432.67,242.32 432.00,242.12 432.00,242.57 C432.00,243.02 431.43,242.60 430.72,241.64 C429.92,240.54 428.80,240.14 427.72,240.55 C425.41,241.44 425.55,243.57 428.02,245.30 C429.81,246.55 429.87,246.87 428.52,247.98 C427.41,248.90 427.00,251.23 427.00,256.54 L 427.00 263.83 L 438.42 270.39 L 449.84 276.94 L 458.03 272.30 C465.40,268.13 466.44,267.79 468.36,269.00 C469.54,269.74 472.20,271.26 474.28,272.38 C476.44,273.54 477.95,275.04 477.78,275.87 C477.52,277.24 471.53,281.28 461.00,287.19 C458.52,288.58 454.70,290.76 452.50,292.04 C450.30,293.32 444.00,296.90 438.50,300.01 C433.00,303.12 426.20,307.09 423.39,308.83 C420.58,310.57 417.95,312.00 417.54,312.00 C417.14,312.00 415.61,312.83 414.15,313.85 C412.69,314.86 409.02,317.05 406.00,318.70 C402.98,320.35 398.81,322.67 396.75,323.85 C394.69,325.03 391.42,326.90 389.50,328.00 C384.22,331.02 380.34,333.26 371.00,338.67 C366.33,341.39 361.83,343.91 361.00,344.28 C360.17,344.65 357.70,346.09 355.50,347.47 C353.30,348.86 350.38,350.55 349.00,351.24 C343.60,353.95 341.62,356.95 341.70,362.26 C341.74,365.00 342.19,367.52 342.69,367.87 C347.07,370.86 348.38,372.25 347.23,372.69 C346.53,372.96 345.39,373.70 344.69,374.34 C343.98,374.98 341.85,376.34 339.95,377.38 C326.60,384.62 316.24,390.96 313.36,393.62 C310.36,396.40 309.98,397.36 309.77,402.62 C309.65,405.85 309.61,410.41 309.69,412.75 L 309.82 417.00 L 154.91 417.00 L 0.00 417.00 L 0.00 208.50 ZM 576.07 205.96 C577.79,205.04 578.00,203.79 578.00,194.46 C578.00,185.05 577.82,184.00 576.20,184.00 C574.30,184.00 569.52,188.63 566.68,193.21 C564.48,196.78 564.56,199.77 566.99,203.75 C569.09,207.20 572.30,207.98 576.07,205.96 ZM 542.71 154.64 C543.48,153.92 543.60,152.97 543.04,152.06 C542.29,150.85 541.90,150.84 540.52,151.98 C539.62,152.73 538.43,154.20 537.86,155.26 C536.95,156.97 537.09,157.11 539.16,156.49 C540.45,156.10 542.05,155.27 542.71,154.64 ZM 555.17 304.91 C553.17,301.70 552.58,290.01 553.92,280.21 C554.58,275.36 555.16,269.95 555.21,268.19 C555.29,265.64 555.72,265.00 557.40,265.02 C558.56,265.03 560.57,265.87 561.88,266.88 C564.18,268.64 564.25,269.06 563.70,278.11 C563.12,287.73 560.57,302.07 558.88,305.23 C557.64,307.54 556.77,307.46 555.17,304.91 ZM 535.72 293.36 C534.91,291.76 534.02,286.04 533.69,280.34 C532.99,268.31 533.84,267.21 539.43,272.93 C543.39,276.98 543.36,276.68 540.75,287.00 C540.12,289.48 539.06,292.56 538.39,293.86 L 537.17 296.23 L 535.72 293.36 Z" fill="rgb(253,254,254)"/>
</g>
</svg>